<mxfile host="Paw">
  <diagram id="iGO" name="teal">
    <mxGraphModel dx="0" dy="0" background="#008080" grid="0" gridSize="10" guides="1" tooltips="1" connect="1" arrows="1" fold="1" page="1" pageScale="1" pageWidth="1169" pageHeight="827" math="0" shadow="0">
      <root>
        <mxCell id="page_root_iGO" parent="iGO"/>
        <mxCell id="node_root_iGO" parent="page_root_iGO"/>
        <mxCell id="iGO-2" value="teal" style="whiteSpace=wrap;html=1;fontColor=#FFFFFF;text;fontSize=89;fontStyle=1;fillColor=none" vertex="1" parent="node_root_iGO">
          <mxGeometry x="200" y="35" width="100" height="50" as="geometry"/>
        </mxCell>
        <mxCell id="iGO-3" value="teal" style="whiteSpace=wrap;html=1;fontColor=#FFFFFF;text;fontSize=21;fontStyle=1;fillColor=none" vertex="1" parent="node_root_iGO">
          <mxGeometry x="700" y="35" width="100" height="50" as="geometry"/>
        </mxCell>
        <mxCell id="iGO-4" value="teal" style="whiteSpace=wrap;html=1;fontColor=#FFFFFF;text;fontSize=67;fontStyle=1;fillColor=none" vertex="1" parent="node_root_iGO">
          <mxGeometry x="200" y="155" width="100" height="50" as="geometry"/>
        </mxCell>
        <mxCell id="iGO-5" value="teal" style="whiteSpace=wrap;html=1;fontColor=#FFFFFF;text;fontSize=28;fontStyle=1;fillColor=none" vertex="1" parent="node_root_iGO">
          <mxGeometry x="700" y="155" width="100" height="50" as="geometry"/>
        </mxCell>
        <mxCell id="iGO-6" value="teal" style="whiteSpace=wrap;html=1;fontColor=#FFFFFF;text;fontSize=50;fontStyle=1;fillColor=none" vertex="1" parent="node_root_iGO">
          <mxGeometry x="200" y="275" width="100" height="50" as="geometry"/>
        </mxCell>
        <mxCell id="iGO-7" value="teal" style="whiteSpace=wrap;html=1;fontColor=#FFFFFF;text;fontSize=37;fontStyle=1;fillColor=none" vertex="1" parent="node_root_iGO">
          <mxGeometry x="700" y="275" width="100" height="50" as="geometry"/>
        </mxCell>
        <mxCell id="iGO-8" value="teal" style="whiteSpace=wrap;html=1;fontColor=#FFFFFF;text;fontSize=16;fontStyle=1;fillColor=none" vertex="1" parent="node_root_iGO">
          <mxGeometry x="200" y="395" width="100" height="50" as="geometry"/>
        </mxCell>
        <mxCell id="iGO-9" value="" style="whiteSpace=wrap;html=1;fillColor=#ffffff;strokeColor=#000000;fontColor=#000000" vertex="1" parent="node_root_iGO">
          <mxGeometry x="705" y="375" width="90" height="90" as="geometry"/>
        </mxCell>
        <mxCell id="iGO-11" value="" style="whiteSpace=wrap;html=1;fillColor=#dae8fc;strokeColor=#6c8ebf;fontColor=#333333" vertex="1" parent="node_root_iGO">
          <mxGeometry x="25" y="485" width="90" height="90" as="geometry"/>
        </mxCell>
        <mxCell id="iGO-12" value="" style="whiteSpace=wrap;html=1;fillColor=#dae8fc;strokeColor=#6c8ebf;fontColor=#333333;ellipse" vertex="1" parent="node_root_iGO">
          <mxGeometry x="165" y="485" width="90" height="90" as="geometry"/>
        </mxCell>
        <mxCell id="iGO-13" value="" style="whiteSpace=wrap;html=1;fillColor=#dae8fc;strokeColor=#6c8ebf;fontColor=#333333;shape=actor" vertex="1" parent="node_root_iGO">
          <mxGeometry x="305" y="485" width="90" height="90" as="geometry"/>
        </mxCell>
        <mxCell id="iGO-14" value="" style="whiteSpace=wrap;html=1;fillColor=#dae8fc;strokeColor=#6c8ebf;fontColor=#333333;verticalLabelPosition=bottom;verticalAlign=top;shape=mxgraph.basic.tick" vertex="1" parent="node_root_iGO">
          <mxGeometry x="445" y="485" width="90" height="90" as="geometry"/>
        </mxCell>
        <mxCell id="iGO-15" value="" style="whiteSpace=wrap;html=1;fillColor=#dae8fc;strokeColor=#6c8ebf;fontColor=#333333;verticalLabelPosition=bottom;verticalAlign=top;shape=mxgraph.basic.x" vertex="1" parent="node_root_iGO">
          <mxGeometry x="585" y="485" width="90" height="90" as="geometry"/>
        </mxCell>
        <mxCell id="iGO-16" value="" style="whiteSpace=wrap;html=1;fillColor=#dae8fc;strokeColor=#6c8ebf;fontColor=#333333;shape=cloud" vertex="1" parent="node_root_iGO">
          <mxGeometry x="725" y="485" width="90" height="90" as="geometry"/>
        </mxCell>
      </root>
    </mxGraphModel>
  </diagram>
  <diagram id="Wxr" name="deep_sky_blue">
    <mxGraphModel dx="0" dy="0" background="#00BFFF" grid="0" gridSize="10" guides="1" tooltips="1" connect="1" arrows="1" fold="1" page="1" pageScale="1" pageWidth="1169" pageHeight="827" math="0" shadow="0">
      <root>
        <mxCell id="page_root_Wxr" parent="Wxr"/>
        <mxCell id="node_root_Wxr" parent="page_root_Wxr"/>
        <mxCell id="Wxr-2" value="deep_sky_blue" style="whiteSpace=wrap;html=1;fontColor=#FFFFFF;text;fontSize=89;fontStyle=1;fillColor=none" vertex="1" parent="node_root_Wxr">
          <mxGeometry x="200" y="35" width="100" height="50" as="geometry"/>
        </mxCell>
        <mxCell id="Wxr-3" value="deep_sky_blue" style="whiteSpace=wrap;html=1;fontColor=#FFFFFF;text;fontSize=21;fontStyle=1;fillColor=none" vertex="1" parent="node_root_Wxr">
          <mxGeometry x="700" y="35" width="100" height="50" as="geometry"/>
        </mxCell>
        <mxCell id="Wxr-4" value="deep_sky_blue" style="whiteSpace=wrap;html=1;fontColor=#FFFFFF;text;fontSize=67;fontStyle=1;fillColor=none" vertex="1" parent="node_root_Wxr">
          <mxGeometry x="200" y="155" width="100" height="50" as="geometry"/>
        </mxCell>
        <mxCell id="Wxr-5" value="deep_sky_blue" style="whiteSpace=wrap;html=1;fontColor=#FFFFFF;text;fontSize=28;fontStyle=1;fillColor=none" vertex="1" parent="node_root_Wxr">
          <mxGeometry x="700" y="155" width="100" height="50" as="geometry"/>
        </mxCell>
        <mxCell id="Wxr-6" value="deep_sky_blue" style="whiteSpace=wrap;html=1;fontColor=#FFFFFF;text;fontSize=50;fontStyle=1;fillColor=none" vertex="1" parent="node_root_Wxr">
          <mxGeometry x="200" y="275" width="100" height="50" as="geometry"/>
        </mxCell>
        <mxCell id="Wxr-7" value="deep_sky_blue" style="whiteSpace=wrap;html=1;fontColor=#FFFFFF;text;fontSize=37;fontStyle=1;fillColor=none" vertex="1" parent="node_root_Wxr">
          <mxGeometry x="700" y="275" width="100" height="50" as="geometry"/>
        </mxCell>
        <mxCell id="Wxr-8" value="deep_sky_blue" style="whiteSpace=wrap;html=1;fontColor=#FFFFFF;text;fontSize=16;fontStyle=1;fillColor=none" vertex="1" parent="node_root_Wxr">
          <mxGeometry x="200" y="395" width="100" height="50" as="geometry"/>
        </mxCell>
        <mxCell id="Wxr-9" value="" style="whiteSpace=wrap;html=1;fillColor=#ffffff;strokeColor=#000000;fontColor=#000000" vertex="1" parent="node_root_Wxr">
          <mxGeometry x="705" y="375" width="90" height="90" as="geometry"/>
        </mxCell>
        <mxCell id="Wxr-11" value="" style="whiteSpace=wrap;html=1;fillColor=#dae8fc;strokeColor=#6c8ebf;fontColor=#333333" vertex="1" parent="node_root_Wxr">
          <mxGeometry x="25" y="485" width="90" height="90" as="geometry"/>
        </mxCell>
        <mxCell id="Wxr-12" value="" style="whiteSpace=wrap;html=1;fillColor=#dae8fc;strokeColor=#6c8ebf;fontColor=#333333;ellipse" vertex="1" parent="node_root_Wxr">
          <mxGeometry x="165" y="485" width="90" height="90" as="geometry"/>
        </mxCell>
        <mxCell id="Wxr-13" value="" style="whiteSpace=wrap;html=1;fillColor=#dae8fc;strokeColor=#6c8ebf;fontColor=#333333;shape=actor" vertex="1" parent="node_root_Wxr">
          <mxGeometry x="305" y="485" width="90" height="90" as="geometry"/>
        </mxCell>
        <mxCell id="Wxr-14" value="" style="whiteSpace=wrap;html=1;fillColor=#dae8fc;strokeColor=#6c8ebf;fontColor=#333333;verticalLabelPosition=bottom;verticalAlign=top;shape=mxgraph.basic.tick" vertex="1" parent="node_root_Wxr">
          <mxGeometry x="445" y="485" width="90" height="90" as="geometry"/>
        </mxCell>
        <mxCell id="Wxr-15" value="" style="whiteSpace=wrap;html=1;fillColor=#dae8fc;strokeColor=#6c8ebf;fontColor=#333333;verticalLabelPosition=bottom;verticalAlign=top;shape=mxgraph.basic.x" vertex="1" parent="node_root_Wxr">
          <mxGeometry x="585" y="485" width="90" height="90" as="geometry"/>
        </mxCell>
        <mxCell id="Wxr-16" value="" style="whiteSpace=wrap;html=1;fillColor=#dae8fc;strokeColor=#6c8ebf;fontColor=#333333;shape=cloud" vertex="1" parent="node_root_Wxr">
          <mxGeometry x="725" y="485" width="90" height="90" as="geometry"/>
        </mxCell>
      </root>
    </mxGraphModel>
  </diagram>
  <diagram id="G94" name="dark_turquoise">
    <mxGraphModel dx="0" dy="0" background="#00CED1" grid="0" gridSize="10" guides="1" tooltips="1" connect="1" arrows="1" fold="1" page="1" pageScale="1" pageWidth="1169" pageHeight="827" math="0" shadow="0">
      <root>
        <mxCell id="page_root_G94" parent="G94"/>
        <mxCell id="node_root_G94" parent="page_root_G94"/>
        <mxCell id="G94-2" value="dark_turquoise" style="whiteSpace=wrap;html=1;fontColor=#FFFFFF;text;fontSize=89;fontStyle=1;fillColor=none" vertex="1" parent="node_root_G94">
          <mxGeometry x="200" y="35" width="100" height="50" as="geometry"/>
        </mxCell>
        <mxCell id="G94-3" value="dark_turquoise" style="whiteSpace=wrap;html=1;fontColor=#FFFFFF;text;fontSize=21;fontStyle=1;fillColor=none" vertex="1" parent="node_root_G94">
          <mxGeometry x="700" y="35" width="100" height="50" as="geometry"/>
        </mxCell>
        <mxCell id="G94-4" value="dark_turquoise" style="whiteSpace=wrap;html=1;fontColor=#FFFFFF;text;fontSize=67;fontStyle=1;fillColor=none" vertex="1" parent="node_root_G94">
          <mxGeometry x="200" y="155" width="100" height="50" as="geometry"/>
        </mxCell>
        <mxCell id="G94-5" value="dark_turquoise" style="whiteSpace=wrap;html=1;fontColor=#FFFFFF;text;fontSize=28;fontStyle=1;fillColor=none" vertex="1" parent="node_root_G94">
          <mxGeometry x="700" y="155" width="100" height="50" as="geometry"/>
        </mxCell>
        <mxCell id="G94-6" value="dark_turquoise" style="whiteSpace=wrap;html=1;fontColor=#FFFFFF;text;fontSize=50;fontStyle=1;fillColor=none" vertex="1" parent="node_root_G94">
          <mxGeometry x="200" y="275" width="100" height="50" as="geometry"/>
        </mxCell>
        <mxCell id="G94-7" value="dark_turquoise" style="whiteSpace=wrap;html=1;fontColor=#FFFFFF;text;fontSize=37;fontStyle=1;fillColor=none" vertex="1" parent="node_root_G94">
          <mxGeometry x="700" y="275" width="100" height="50" as="geometry"/>
        </mxCell>
        <mxCell id="G94-8" value="dark_turquoise" style="whiteSpace=wrap;html=1;fontColor=#FFFFFF;text;fontSize=16;fontStyle=1;fillColor=none" vertex="1" parent="node_root_G94">
          <mxGeometry x="200" y="395" width="100" height="50" as="geometry"/>
        </mxCell>
        <mxCell id="G94-9" value="" style="whiteSpace=wrap;html=1;fillColor=#ffffff;strokeColor=#000000;fontColor=#000000" vertex="1" parent="node_root_G94">
          <mxGeometry x="705" y="375" width="90" height="90" as="geometry"/>
        </mxCell>
        <mxCell id="G94-11" value="" style="whiteSpace=wrap;html=1;fillColor=#dae8fc;strokeColor=#6c8ebf;fontColor=#333333" vertex="1" parent="node_root_G94">
          <mxGeometry x="25" y="485" width="90" height="90" as="geometry"/>
        </mxCell>
        <mxCell id="G94-12" value="" style="whiteSpace=wrap;html=1;fillColor=#dae8fc;strokeColor=#6c8ebf;fontColor=#333333;ellipse" vertex="1" parent="node_root_G94">
          <mxGeometry x="165" y="485" width="90" height="90" as="geometry"/>
        </mxCell>
        <mxCell id="G94-13" value="" style="whiteSpace=wrap;html=1;fillColor=#dae8fc;strokeColor=#6c8ebf;fontColor=#333333;shape=actor" vertex="1" parent="node_root_G94">
          <mxGeometry x="305" y="485" width="90" height="90" as="geometry"/>
        </mxCell>
        <mxCell id="G94-14" value="" style="whiteSpace=wrap;html=1;fillColor=#dae8fc;strokeColor=#6c8ebf;fontColor=#333333;verticalLabelPosition=bottom;verticalAlign=top;shape=mxgraph.basic.tick" vertex="1" parent="node_root_G94">
          <mxGeometry x="445" y="485" width="90" height="90" as="geometry"/>
        </mxCell>
        <mxCell id="G94-15" value="" style="whiteSpace=wrap;html=1;fillColor=#dae8fc;strokeColor=#6c8ebf;fontColor=#333333;verticalLabelPosition=bottom;verticalAlign=top;shape=mxgraph.basic.x" vertex="1" parent="node_root_G94">
          <mxGeometry x="585" y="485" width="90" height="90" as="geometry"/>
        </mxCell>
        <mxCell id="G94-16" value="" style="whiteSpace=wrap;html=1;fillColor=#dae8fc;strokeColor=#6c8ebf;fontColor=#333333;shape=cloud" vertex="1" parent="node_root_G94">
          <mxGeometry x="725" y="485" width="90" height="90" as="geometry"/>
        </mxCell>
      </root>
    </mxGraphModel>
  </diagram>
  <diagram id="PBX" name="royal_blue">
    <mxGraphModel dx="0" dy="0" background="#4169E1" grid="0" gridSize="10" guides="1" tooltips="1" connect="1" arrows="1" fold="1" page="1" pageScale="1" pageWidth="1169" pageHeight="827" math="0" shadow="0">
      <root>
        <mxCell id="page_root_PBX" parent="PBX"/>
        <mxCell id="node_root_PBX" parent="page_root_PBX"/>
        <mxCell id="PBX-2" value="royal_blue" style="whiteSpace=wrap;html=1;fontColor=#FFFFFF;text;fontSize=89;fontStyle=1;fillColor=none" vertex="1" parent="node_root_PBX">
          <mxGeometry x="200" y="35" width="100" height="50" as="geometry"/>
        </mxCell>
        <mxCell id="PBX-3" value="royal_blue" style="whiteSpace=wrap;html=1;fontColor=#FFFFFF;text;fontSize=21;fontStyle=1;fillColor=none" vertex="1" parent="node_root_PBX">
          <mxGeometry x="700" y="35" width="100" height="50" as="geometry"/>
        </mxCell>
        <mxCell id="PBX-4" value="royal_blue" style="whiteSpace=wrap;html=1;fontColor=#FFFFFF;text;fontSize=67;fontStyle=1;fillColor=none" vertex="1" parent="node_root_PBX">
          <mxGeometry x="200" y="155" width="100" height="50" as="geometry"/>
        </mxCell>
        <mxCell id="PBX-5" value="royal_blue" style="whiteSpace=wrap;html=1;fontColor=#FFFFFF;text;fontSize=28;fontStyle=1;fillColor=none" vertex="1" parent="node_root_PBX">
          <mxGeometry x="700" y="155" width="100" height="50" as="geometry"/>
        </mxCell>
        <mxCell id="PBX-6" value="royal_blue" style="whiteSpace=wrap;html=1;fontColor=#FFFFFF;text;fontSize=50;fontStyle=1;fillColor=none" vertex="1" parent="node_root_PBX">
          <mxGeometry x="200" y="275" width="100" height="50" as="geometry"/>
        </mxCell>
        <mxCell id="PBX-7" value="royal_blue" style="whiteSpace=wrap;html=1;fontColor=#FFFFFF;text;fontSize=37;fontStyle=1;fillColor=none" vertex="1" parent="node_root_PBX">
          <mxGeometry x="700" y="275" width="100" height="50" as="geometry"/>
        </mxCell>
        <mxCell id="PBX-8" value="royal_blue" style="whiteSpace=wrap;html=1;fontColor=#FFFFFF;text;fontSize=16;fontStyle=1;fillColor=none" vertex="1" parent="node_root_PBX">
          <mxGeometry x="200" y="395" width="100" height="50" as="geometry"/>
        </mxCell>
        <mxCell id="PBX-9" value="" style="whiteSpace=wrap;html=1;fillColor=#ffffff;strokeColor=#000000;fontColor=#000000" vertex="1" parent="node_root_PBX">
          <mxGeometry x="705" y="375" width="90" height="90" as="geometry"/>
        </mxCell>
        <mxCell id="PBX-11" value="" style="whiteSpace=wrap;html=1;fillColor=#dae8fc;strokeColor=#6c8ebf;fontColor=#333333" vertex="1" parent="node_root_PBX">
          <mxGeometry x="25" y="485" width="90" height="90" as="geometry"/>
        </mxCell>
        <mxCell id="PBX-12" value="" style="whiteSpace=wrap;html=1;fillColor=#dae8fc;strokeColor=#6c8ebf;fontColor=#333333;ellipse" vertex="1" parent="node_root_PBX">
          <mxGeometry x="165" y="485" width="90" height="90" as="geometry"/>
        </mxCell>
        <mxCell id="PBX-13" value="" style="whiteSpace=wrap;html=1;fillColor=#dae8fc;strokeColor=#6c8ebf;fontColor=#333333;shape=actor" vertex="1" parent="node_root_PBX">
          <mxGeometry x="305" y="485" width="90" height="90" as="geometry"/>
        </mxCell>
        <mxCell id="PBX-14" value="" style="whiteSpace=wrap;html=1;fillColor=#dae8fc;strokeColor=#6c8ebf;fontColor=#333333;verticalLabelPosition=bottom;verticalAlign=top;shape=mxgraph.basic.tick" vertex="1" parent="node_root_PBX">
          <mxGeometry x="445" y="485" width="90" height="90" as="geometry"/>
        </mxCell>
        <mxCell id="PBX-15" value="" style="whiteSpace=wrap;html=1;fillColor=#dae8fc;strokeColor=#6c8ebf;fontColor=#333333;verticalLabelPosition=bottom;verticalAlign=top;shape=mxgraph.basic.x" vertex="1" parent="node_root_PBX">
          <mxGeometry x="585" y="485" width="90" height="90" as="geometry"/>
        </mxCell>
        <mxCell id="PBX-16" value="" style="whiteSpace=wrap;html=1;fillColor=#dae8fc;strokeColor=#6c8ebf;fontColor=#333333;shape=cloud" vertex="1" parent="node_root_PBX">
          <mxGeometry x="725" y="485" width="90" height="90" as="geometry"/>
        </mxCell>
      </root>
    </mxGraphModel>
  </diagram>
  <diagram id="EFx" name="steel_blue">
    <mxGraphModel dx="0" dy="0" background="#4682B4" grid="0" gridSize="10" guides="1" tooltips="1" connect="1" arrows="1" fold="1" page="1" pageScale="1" pageWidth="1169" pageHeight="827" math="0" shadow="0">
      <root>
        <mxCell id="page_root_EFx" parent="EFx"/>
        <mxCell id="node_root_EFx" parent="page_root_EFx"/>
        <mxCell id="EFx-2" value="steel_blue" style="whiteSpace=wrap;html=1;fontColor=#FFFFFF;text;fontSize=89;fontStyle=1;fillColor=none" vertex="1" parent="node_root_EFx">
          <mxGeometry x="200" y="35" width="100" height="50" as="geometry"/>
        </mxCell>
        <mxCell id="EFx-3" value="steel_blue" style="whiteSpace=wrap;html=1;fontColor=#FFFFFF;text;fontSize=21;fontStyle=1;fillColor=none" vertex="1" parent="node_root_EFx">
          <mxGeometry x="700" y="35" width="100" height="50" as="geometry"/>
        </mxCell>
        <mxCell id="EFx-4" value="steel_blue" style="whiteSpace=wrap;html=1;fontColor=#FFFFFF;text;fontSize=67;fontStyle=1;fillColor=none" vertex="1" parent="node_root_EFx">
          <mxGeometry x="200" y="155" width="100" height="50" as="geometry"/>
        </mxCell>
        <mxCell id="EFx-5" value="steel_blue" style="whiteSpace=wrap;html=1;fontColor=#FFFFFF;text;fontSize=28;fontStyle=1;fillColor=none" vertex="1" parent="node_root_EFx">
          <mxGeometry x="700" y="155" width="100" height="50" as="geometry"/>
        </mxCell>
        <mxCell id="EFx-6" value="steel_blue" style="whiteSpace=wrap;html=1;fontColor=#FFFFFF;text;fontSize=50;fontStyle=1;fillColor=none" vertex="1" parent="node_root_EFx">
          <mxGeometry x="200" y="275" width="100" height="50" as="geometry"/>
        </mxCell>
        <mxCell id="EFx-7" value="steel_blue" style="whiteSpace=wrap;html=1;fontColor=#FFFFFF;text;fontSize=37;fontStyle=1;fillColor=none" vertex="1" parent="node_root_EFx">
          <mxGeometry x="700" y="275" width="100" height="50" as="geometry"/>
        </mxCell>
        <mxCell id="EFx-8" value="steel_blue" style="whiteSpace=wrap;html=1;fontColor=#FFFFFF;text;fontSize=16;fontStyle=1;fillColor=none" vertex="1" parent="node_root_EFx">
          <mxGeometry x="200" y="395" width="100" height="50" as="geometry"/>
        </mxCell>
        <mxCell id="EFx-9" value="" style="whiteSpace=wrap;html=1;fillColor=#ffffff;strokeColor=#000000;fontColor=#000000" vertex="1" parent="node_root_EFx">
          <mxGeometry x="705" y="375" width="90" height="90" as="geometry"/>
        </mxCell>
        <mxCell id="EFx-11" value="" style="whiteSpace=wrap;html=1;fillColor=#dae8fc;strokeColor=#6c8ebf;fontColor=#333333" vertex="1" parent="node_root_EFx">
          <mxGeometry x="25" y="485" width="90" height="90" as="geometry"/>
        </mxCell>
        <mxCell id="EFx-12" value="" style="whiteSpace=wrap;html=1;fillColor=#dae8fc;strokeColor=#6c8ebf;fontColor=#333333;ellipse" vertex="1" parent="node_root_EFx">
          <mxGeometry x="165" y="485" width="90" height="90" as="geometry"/>
        </mxCell>
        <mxCell id="EFx-13" value="" style="whiteSpace=wrap;html=1;fillColor=#dae8fc;strokeColor=#6c8ebf;fontColor=#333333;shape=actor" vertex="1" parent="node_root_EFx">
          <mxGeometry x="305" y="485" width="90" height="90" as="geometry"/>
        </mxCell>
        <mxCell id="EFx-14" value="" style="whiteSpace=wrap;html=1;fillColor=#dae8fc;strokeColor=#6c8ebf;fontColor=#333333;verticalLabelPosition=bottom;verticalAlign=top;shape=mxgraph.basic.tick" vertex="1" parent="node_root_EFx">
          <mxGeometry x="445" y="485" width="90" height="90" as="geometry"/>
        </mxCell>
        <mxCell id="EFx-15" value="" style="whiteSpace=wrap;html=1;fillColor=#dae8fc;strokeColor=#6c8ebf;fontColor=#333333;verticalLabelPosition=bottom;verticalAlign=top;shape=mxgraph.basic.x" vertex="1" parent="node_root_EFx">
          <mxGeometry x="585" y="485" width="90" height="90" as="geometry"/>
        </mxCell>
        <mxCell id="EFx-16" value="" style="whiteSpace=wrap;html=1;fillColor=#dae8fc;strokeColor=#6c8ebf;fontColor=#333333;shape=cloud" vertex="1" parent="node_root_EFx">
          <mxGeometry x="725" y="485" width="90" height="90" as="geometry"/>
        </mxCell>
      </root>
    </mxGraphModel>
  </diagram>
  <diagram id="rMv" name="cornflower_blue">
    <mxGraphModel dx="0" dy="0" background="#6495ED" grid="0" gridSize="10" guides="1" tooltips="1" connect="1" arrows="1" fold="1" page="1" pageScale="1" pageWidth="1169" pageHeight="827" math="0" shadow="0">
      <root>
        <mxCell id="page_root_rMv" parent="rMv"/>
        <mxCell id="node_root_rMv" parent="page_root_rMv"/>
        <mxCell id="rMv-2" value="cornflower_blue" style="whiteSpace=wrap;html=1;fontColor=#FFFFFF;text;fontSize=89;fontStyle=1;fillColor=none" vertex="1" parent="node_root_rMv">
          <mxGeometry x="200" y="35" width="100" height="50" as="geometry"/>
        </mxCell>
        <mxCell id="rMv-3" value="cornflower_blue" style="whiteSpace=wrap;html=1;fontColor=#FFFFFF;text;fontSize=21;fontStyle=1;fillColor=none" vertex="1" parent="node_root_rMv">
          <mxGeometry x="700" y="35" width="100" height="50" as="geometry"/>
        </mxCell>
        <mxCell id="rMv-4" value="cornflower_blue" style="whiteSpace=wrap;html=1;fontColor=#FFFFFF;text;fontSize=67;fontStyle=1;fillColor=none" vertex="1" parent="node_root_rMv">
          <mxGeometry x="200" y="155" width="100" height="50" as="geometry"/>
        </mxCell>
        <mxCell id="rMv-5" value="cornflower_blue" style="whiteSpace=wrap;html=1;fontColor=#FFFFFF;text;fontSize=28;fontStyle=1;fillColor=none" vertex="1" parent="node_root_rMv">
          <mxGeometry x="700" y="155" width="100" height="50" as="geometry"/>
        </mxCell>
        <mxCell id="rMv-6" value="cornflower_blue" style="whiteSpace=wrap;html=1;fontColor=#FFFFFF;text;fontSize=50;fontStyle=1;fillColor=none" vertex="1" parent="node_root_rMv">
          <mxGeometry x="200" y="275" width="100" height="50" as="geometry"/>
        </mxCell>
        <mxCell id="rMv-7" value="cornflower_blue" style="whiteSpace=wrap;html=1;fontColor=#FFFFFF;text;fontSize=37;fontStyle=1;fillColor=none" vertex="1" parent="node_root_rMv">
          <mxGeometry x="700" y="275" width="100" height="50" as="geometry"/>
        </mxCell>
        <mxCell id="rMv-8" value="cornflower_blue" style="whiteSpace=wrap;html=1;fontColor=#FFFFFF;text;fontSize=16;fontStyle=1;fillColor=none" vertex="1" parent="node_root_rMv">
          <mxGeometry x="200" y="395" width="100" height="50" as="geometry"/>
        </mxCell>
        <mxCell id="rMv-9" value="" style="whiteSpace=wrap;html=1;fillColor=#ffffff;strokeColor=#000000;fontColor=#000000" vertex="1" parent="node_root_rMv">
          <mxGeometry x="705" y="375" width="90" height="90" as="geometry"/>
        </mxCell>
        <mxCell id="rMv-11" value="" style="whiteSpace=wrap;html=1;fillColor=#dae8fc;strokeColor=#6c8ebf;fontColor=#333333" vertex="1" parent="node_root_rMv">
          <mxGeometry x="25" y="485" width="90" height="90" as="geometry"/>
        </mxCell>
        <mxCell id="rMv-12" value="" style="whiteSpace=wrap;html=1;fillColor=#dae8fc;strokeColor=#6c8ebf;fontColor=#333333;ellipse" vertex="1" parent="node_root_rMv">
          <mxGeometry x="165" y="485" width="90" height="90" as="geometry"/>
        </mxCell>
        <mxCell id="rMv-13" value="" style="whiteSpace=wrap;html=1;fillColor=#dae8fc;strokeColor=#6c8ebf;fontColor=#333333;shape=actor" vertex="1" parent="node_root_rMv">
          <mxGeometry x="305" y="485" width="90" height="90" as="geometry"/>
        </mxCell>
        <mxCell id="rMv-14" value="" style="whiteSpace=wrap;html=1;fillColor=#dae8fc;strokeColor=#6c8ebf;fontColor=#333333;verticalLabelPosition=bottom;verticalAlign=top;shape=mxgraph.basic.tick" vertex="1" parent="node_root_rMv">
          <mxGeometry x="445" y="485" width="90" height="90" as="geometry"/>
        </mxCell>
        <mxCell id="rMv-15" value="" style="whiteSpace=wrap;html=1;fillColor=#dae8fc;strokeColor=#6c8ebf;fontColor=#333333;verticalLabelPosition=bottom;verticalAlign=top;shape=mxgraph.basic.x" vertex="1" parent="node_root_rMv">
          <mxGeometry x="585" y="485" width="90" height="90" as="geometry"/>
        </mxCell>
        <mxCell id="rMv-16" value="" style="whiteSpace=wrap;html=1;fillColor=#dae8fc;strokeColor=#6c8ebf;fontColor=#333333;shape=cloud" vertex="1" parent="node_root_rMv">
          <mxGeometry x="725" y="485" width="90" height="90" as="geometry"/>
        </mxCell>
      </root>
    </mxGraphModel>
  </diagram>
  <diagram id="VQZ" name="dark_sea_green">
    <mxGraphModel dx="0" dy="0" background="#8FBC8F" grid="0" gridSize="10" guides="1" tooltips="1" connect="1" arrows="1" fold="1" page="1" pageScale="1" pageWidth="1169" pageHeight="827" math="0" shadow="0">
      <root>
        <mxCell id="page_root_VQZ" parent="VQZ"/>
        <mxCell id="node_root_VQZ" parent="page_root_VQZ"/>
        <mxCell id="VQZ-2" value="dark_sea_green" style="whiteSpace=wrap;html=1;fontColor=#1F2D3D;text;fontSize=89;fontStyle=1;fillColor=none" vertex="1" parent="node_root_VQZ">
          <mxGeometry x="200" y="35" width="100" height="50" as="geometry"/>
        </mxCell>
        <mxCell id="VQZ-3" value="dark_sea_green" style="whiteSpace=wrap;html=1;fontColor=#1F2D3D;text;fontSize=21;fontStyle=1;fillColor=none" vertex="1" parent="node_root_VQZ">
          <mxGeometry x="700" y="35" width="100" height="50" as="geometry"/>
        </mxCell>
        <mxCell id="VQZ-4" value="dark_sea_green" style="whiteSpace=wrap;html=1;fontColor=#1F2D3D;text;fontSize=67;fontStyle=1;fillColor=none" vertex="1" parent="node_root_VQZ">
          <mxGeometry x="200" y="155" width="100" height="50" as="geometry"/>
        </mxCell>
        <mxCell id="VQZ-5" value="dark_sea_green" style="whiteSpace=wrap;html=1;fontColor=#1F2D3D;text;fontSize=28;fontStyle=1;fillColor=none" vertex="1" parent="node_root_VQZ">
          <mxGeometry x="700" y="155" width="100" height="50" as="geometry"/>
        </mxCell>
        <mxCell id="VQZ-6" value="dark_sea_green" style="whiteSpace=wrap;html=1;fontColor=#1F2D3D;text;fontSize=50;fontStyle=1;fillColor=none" vertex="1" parent="node_root_VQZ">
          <mxGeometry x="200" y="275" width="100" height="50" as="geometry"/>
        </mxCell>
        <mxCell id="VQZ-7" value="dark_sea_green" style="whiteSpace=wrap;html=1;fontColor=#1F2D3D;text;fontSize=37;fontStyle=1;fillColor=none" vertex="1" parent="node_root_VQZ">
          <mxGeometry x="700" y="275" width="100" height="50" as="geometry"/>
        </mxCell>
        <mxCell id="VQZ-8" value="dark_sea_green" style="whiteSpace=wrap;html=1;fontColor=#1F2D3D;text;fontSize=16;fontStyle=1;fillColor=none" vertex="1" parent="node_root_VQZ">
          <mxGeometry x="200" y="395" width="100" height="50" as="geometry"/>
        </mxCell>
        <mxCell id="VQZ-9" value="" style="whiteSpace=wrap;html=1;fillColor=#ffffff;strokeColor=#000000;fontColor=#000000" vertex="1" parent="node_root_VQZ">
          <mxGeometry x="705" y="375" width="90" height="90" as="geometry"/>
        </mxCell>
        <mxCell id="VQZ-11" value="" style="whiteSpace=wrap;html=1;fillColor=#dae8fc;strokeColor=#6c8ebf;fontColor=#333333" vertex="1" parent="node_root_VQZ">
          <mxGeometry x="25" y="485" width="90" height="90" as="geometry"/>
        </mxCell>
        <mxCell id="VQZ-12" value="" style="whiteSpace=wrap;html=1;fillColor=#dae8fc;strokeColor=#6c8ebf;fontColor=#333333;ellipse" vertex="1" parent="node_root_VQZ">
          <mxGeometry x="165" y="485" width="90" height="90" as="geometry"/>
        </mxCell>
        <mxCell id="VQZ-13" value="" style="whiteSpace=wrap;html=1;fillColor=#dae8fc;strokeColor=#6c8ebf;fontColor=#333333;shape=actor" vertex="1" parent="node_root_VQZ">
          <mxGeometry x="305" y="485" width="90" height="90" as="geometry"/>
        </mxCell>
        <mxCell id="VQZ-14" value="" style="whiteSpace=wrap;html=1;fillColor=#dae8fc;strokeColor=#6c8ebf;fontColor=#333333;verticalLabelPosition=bottom;verticalAlign=top;shape=mxgraph.basic.tick" vertex="1" parent="node_root_VQZ">
          <mxGeometry x="445" y="485" width="90" height="90" as="geometry"/>
        </mxCell>
        <mxCell id="VQZ-15" value="" style="whiteSpace=wrap;html=1;fillColor=#dae8fc;strokeColor=#6c8ebf;fontColor=#333333;verticalLabelPosition=bottom;verticalAlign=top;shape=mxgraph.basic.x" vertex="1" parent="node_root_VQZ">
          <mxGeometry x="585" y="485" width="90" height="90" as="geometry"/>
        </mxCell>
        <mxCell id="VQZ-16" value="" style="whiteSpace=wrap;html=1;fillColor=#dae8fc;strokeColor=#6c8ebf;fontColor=#333333;shape=cloud" vertex="1" parent="node_root_VQZ">
          <mxGeometry x="725" y="485" width="90" height="90" as="geometry"/>
        </mxCell>
      </root>
    </mxGraphModel>
  </diagram>
  <diagram id="uZv" name="light_steel_blue">
    <mxGraphModel dx="0" dy="0" background="#B0C4DE" grid="0" gridSize="10" guides="1" tooltips="1" connect="1" arrows="1" fold="1" page="1" pageScale="1" pageWidth="1169" pageHeight="827" math="0" shadow="0">
      <root>
        <mxCell id="page_root_uZv" parent="uZv"/>
        <mxCell id="node_root_uZv" parent="page_root_uZv"/>
        <mxCell id="uZv-2" value="light_steel_blue" style="whiteSpace=wrap;html=1;fontColor=#1F2D3D;text;fontSize=89;fontStyle=1;fillColor=none" vertex="1" parent="node_root_uZv">
          <mxGeometry x="200" y="35" width="100" height="50" as="geometry"/>
        </mxCell>
        <mxCell id="uZv-3" value="light_steel_blue" style="whiteSpace=wrap;html=1;fontColor=#1F2D3D;text;fontSize=21;fontStyle=1;fillColor=none" vertex="1" parent="node_root_uZv">
          <mxGeometry x="700" y="35" width="100" height="50" as="geometry"/>
        </mxCell>
        <mxCell id="uZv-4" value="light_steel_blue" style="whiteSpace=wrap;html=1;fontColor=#1F2D3D;text;fontSize=67;fontStyle=1;fillColor=none" vertex="1" parent="node_root_uZv">
          <mxGeometry x="200" y="155" width="100" height="50" as="geometry"/>
        </mxCell>
        <mxCell id="uZv-5" value="light_steel_blue" style="whiteSpace=wrap;html=1;fontColor=#1F2D3D;text;fontSize=28;fontStyle=1;fillColor=none" vertex="1" parent="node_root_uZv">
          <mxGeometry x="700" y="155" width="100" height="50" as="geometry"/>
        </mxCell>
        <mxCell id="uZv-6" value="light_steel_blue" style="whiteSpace=wrap;html=1;fontColor=#1F2D3D;text;fontSize=50;fontStyle=1;fillColor=none" vertex="1" parent="node_root_uZv">
          <mxGeometry x="200" y="275" width="100" height="50" as="geometry"/>
        </mxCell>
        <mxCell id="uZv-7" value="light_steel_blue" style="whiteSpace=wrap;html=1;fontColor=#1F2D3D;text;fontSize=37;fontStyle=1;fillColor=none" vertex="1" parent="node_root_uZv">
          <mxGeometry x="700" y="275" width="100" height="50" as="geometry"/>
        </mxCell>
        <mxCell id="uZv-8" value="light_steel_blue" style="whiteSpace=wrap;html=1;fontColor=#1F2D3D;text;fontSize=16;fontStyle=1;fillColor=none" vertex="1" parent="node_root_uZv">
          <mxGeometry x="200" y="395" width="100" height="50" as="geometry"/>
        </mxCell>
        <mxCell id="uZv-9" value="" style="whiteSpace=wrap;html=1;fillColor=#ffffff;strokeColor=#000000;fontColor=#000000" vertex="1" parent="node_root_uZv">
          <mxGeometry x="705" y="375" width="90" height="90" as="geometry"/>
        </mxCell>
        <mxCell id="uZv-11" value="" style="whiteSpace=wrap;html=1;fillColor=#dae8fc;strokeColor=#6c8ebf;fontColor=#333333" vertex="1" parent="node_root_uZv">
          <mxGeometry x="25" y="485" width="90" height="90" as="geometry"/>
        </mxCell>
        <mxCell id="uZv-12" value="" style="whiteSpace=wrap;html=1;fillColor=#dae8fc;strokeColor=#6c8ebf;fontColor=#333333;ellipse" vertex="1" parent="node_root_uZv">
          <mxGeometry x="165" y="485" width="90" height="90" as="geometry"/>
        </mxCell>
        <mxCell id="uZv-13" value="" style="whiteSpace=wrap;html=1;fillColor=#dae8fc;strokeColor=#6c8ebf;fontColor=#333333;shape=actor" vertex="1" parent="node_root_uZv">
          <mxGeometry x="305" y="485" width="90" height="90" as="geometry"/>
        </mxCell>
        <mxCell id="uZv-14" value="" style="whiteSpace=wrap;html=1;fillColor=#dae8fc;strokeColor=#6c8ebf;fontColor=#333333;verticalLabelPosition=bottom;verticalAlign=top;shape=mxgraph.basic.tick" vertex="1" parent="node_root_uZv">
          <mxGeometry x="445" y="485" width="90" height="90" as="geometry"/>
        </mxCell>
        <mxCell id="uZv-15" value="" style="whiteSpace=wrap;html=1;fillColor=#dae8fc;strokeColor=#6c8ebf;fontColor=#333333;verticalLabelPosition=bottom;verticalAlign=top;shape=mxgraph.basic.x" vertex="1" parent="node_root_uZv">
          <mxGeometry x="585" y="485" width="90" height="90" as="geometry"/>
        </mxCell>
        <mxCell id="uZv-16" value="" style="whiteSpace=wrap;html=1;fillColor=#dae8fc;strokeColor=#6c8ebf;fontColor=#333333;shape=cloud" vertex="1" parent="node_root_uZv">
          <mxGeometry x="725" y="485" width="90" height="90" as="geometry"/>
        </mxCell>
      </root>
    </mxGraphModel>
  </diagram>
  <diagram id="up5" name="fire_brick">
    <mxGraphModel dx="0" dy="0" background="#B22222" grid="0" gridSize="10" guides="1" tooltips="1" connect="1" arrows="1" fold="1" page="1" pageScale="1" pageWidth="1169" pageHeight="827" math="0" shadow="0">
      <root>
        <mxCell id="page_root_up5" parent="up5"/>
        <mxCell id="node_root_up5" parent="page_root_up5"/>
        <mxCell id="up5-2" value="fire_brick" style="whiteSpace=wrap;html=1;fontColor=#FFFFFF;text;fontSize=89;fontStyle=1;fillColor=none" vertex="1" parent="node_root_up5">
          <mxGeometry x="200" y="35" width="100" height="50" as="geometry"/>
        </mxCell>
        <mxCell id="up5-3" value="fire_brick" style="whiteSpace=wrap;html=1;fontColor=#FFFFFF;text;fontSize=21;fontStyle=1;fillColor=none" vertex="1" parent="node_root_up5">
          <mxGeometry x="700" y="35" width="100" height="50" as="geometry"/>
        </mxCell>
        <mxCell id="up5-4" value="fire_brick" style="whiteSpace=wrap;html=1;fontColor=#FFFFFF;text;fontSize=67;fontStyle=1;fillColor=none" vertex="1" parent="node_root_up5">
          <mxGeometry x="200" y="155" width="100" height="50" as="geometry"/>
        </mxCell>
        <mxCell id="up5-5" value="fire_brick" style="whiteSpace=wrap;html=1;fontColor=#FFFFFF;text;fontSize=28;fontStyle=1;fillColor=none" vertex="1" parent="node_root_up5">
          <mxGeometry x="700" y="155" width="100" height="50" as="geometry"/>
        </mxCell>
        <mxCell id="up5-6" value="fire_brick" style="whiteSpace=wrap;html=1;fontColor=#FFFFFF;text;fontSize=50;fontStyle=1;fillColor=none" vertex="1" parent="node_root_up5">
          <mxGeometry x="200" y="275" width="100" height="50" as="geometry"/>
        </mxCell>
        <mxCell id="up5-7" value="fire_brick" style="whiteSpace=wrap;html=1;fontColor=#FFFFFF;text;fontSize=37;fontStyle=1;fillColor=none" vertex="1" parent="node_root_up5">
          <mxGeometry x="700" y="275" width="100" height="50" as="geometry"/>
        </mxCell>
        <mxCell id="up5-8" value="fire_brick" style="whiteSpace=wrap;html=1;fontColor=#FFFFFF;text;fontSize=16;fontStyle=1;fillColor=none" vertex="1" parent="node_root_up5">
          <mxGeometry x="200" y="395" width="100" height="50" as="geometry"/>
        </mxCell>
        <mxCell id="up5-9" value="" style="whiteSpace=wrap;html=1;fillColor=#ffffff;strokeColor=#000000;fontColor=#000000" vertex="1" parent="node_root_up5">
          <mxGeometry x="705" y="375" width="90" height="90" as="geometry"/>
        </mxCell>
        <mxCell id="up5-11" value="" style="whiteSpace=wrap;html=1;fillColor=#dae8fc;strokeColor=#6c8ebf;fontColor=#333333" vertex="1" parent="node_root_up5">
          <mxGeometry x="25" y="485" width="90" height="90" as="geometry"/>
        </mxCell>
        <mxCell id="up5-12" value="" style="whiteSpace=wrap;html=1;fillColor=#dae8fc;strokeColor=#6c8ebf;fontColor=#333333;ellipse" vertex="1" parent="node_root_up5">
          <mxGeometry x="165" y="485" width="90" height="90" as="geometry"/>
        </mxCell>
        <mxCell id="up5-13" value="" style="whiteSpace=wrap;html=1;fillColor=#dae8fc;strokeColor=#6c8ebf;fontColor=#333333;shape=actor" vertex="1" parent="node_root_up5">
          <mxGeometry x="305" y="485" width="90" height="90" as="geometry"/>
        </mxCell>
        <mxCell id="up5-14" value="" style="whiteSpace=wrap;html=1;fillColor=#dae8fc;strokeColor=#6c8ebf;fontColor=#333333;verticalLabelPosition=bottom;verticalAlign=top;shape=mxgraph.basic.tick" vertex="1" parent="node_root_up5">
          <mxGeometry x="445" y="485" width="90" height="90" as="geometry"/>
        </mxCell>
        <mxCell id="up5-15" value="" style="whiteSpace=wrap;html=1;fillColor=#dae8fc;strokeColor=#6c8ebf;fontColor=#333333;verticalLabelPosition=bottom;verticalAlign=top;shape=mxgraph.basic.x" vertex="1" parent="node_root_up5">
          <mxGeometry x="585" y="485" width="90" height="90" as="geometry"/>
        </mxCell>
        <mxCell id="up5-16" value="" style="whiteSpace=wrap;html=1;fillColor=#dae8fc;strokeColor=#6c8ebf;fontColor=#333333;shape=cloud" vertex="1" parent="node_root_up5">
          <mxGeometry x="725" y="485" width="90" height="90" as="geometry"/>
        </mxCell>
      </root>
    </mxGraphModel>
  </diagram>
  <diagram id="K6q" name="rosy_brown">
    <mxGraphModel dx="0" dy="0" background="#BC8F8F" grid="0" gridSize="10" guides="1" tooltips="1" connect="1" arrows="1" fold="1" page="1" pageScale="1" pageWidth="1169" pageHeight="827" math="0" shadow="0">
      <root>
        <mxCell id="page_root_K6q" parent="K6q"/>
        <mxCell id="node_root_K6q" parent="page_root_K6q"/>
        <mxCell id="K6q-2" value="rosy_brown" style="whiteSpace=wrap;html=1;fontColor=#1F2D3D;text;fontSize=89;fontStyle=1;fillColor=none" vertex="1" parent="node_root_K6q">
          <mxGeometry x="200" y="35" width="100" height="50" as="geometry"/>
        </mxCell>
        <mxCell id="K6q-3" value="rosy_brown" style="whiteSpace=wrap;html=1;fontColor=#1F2D3D;text;fontSize=21;fontStyle=1;fillColor=none" vertex="1" parent="node_root_K6q">
          <mxGeometry x="700" y="35" width="100" height="50" as="geometry"/>
        </mxCell>
        <mxCell id="K6q-4" value="rosy_brown" style="whiteSpace=wrap;html=1;fontColor=#1F2D3D;text;fontSize=67;fontStyle=1;fillColor=none" vertex="1" parent="node_root_K6q">
          <mxGeometry x="200" y="155" width="100" height="50" as="geometry"/>
        </mxCell>
        <mxCell id="K6q-5" value="rosy_brown" style="whiteSpace=wrap;html=1;fontColor=#1F2D3D;text;fontSize=28;fontStyle=1;fillColor=none" vertex="1" parent="node_root_K6q">
          <mxGeometry x="700" y="155" width="100" height="50" as="geometry"/>
        </mxCell>
        <mxCell id="K6q-6" value="rosy_brown" style="whiteSpace=wrap;html=1;fontColor=#1F2D3D;text;fontSize=50;fontStyle=1;fillColor=none" vertex="1" parent="node_root_K6q">
          <mxGeometry x="200" y="275" width="100" height="50" as="geometry"/>
        </mxCell>
        <mxCell id="K6q-7" value="rosy_brown" style="whiteSpace=wrap;html=1;fontColor=#1F2D3D;text;fontSize=37;fontStyle=1;fillColor=none" vertex="1" parent="node_root_K6q">
          <mxGeometry x="700" y="275" width="100" height="50" as="geometry"/>
        </mxCell>
        <mxCell id="K6q-8" value="rosy_brown" style="whiteSpace=wrap;html=1;fontColor=#1F2D3D;text;fontSize=16;fontStyle=1;fillColor=none" vertex="1" parent="node_root_K6q">
          <mxGeometry x="200" y="395" width="100" height="50" as="geometry"/>
        </mxCell>
        <mxCell id="K6q-9" value="" style="whiteSpace=wrap;html=1;fillColor=#ffffff;strokeColor=#000000;fontColor=#000000" vertex="1" parent="node_root_K6q">
          <mxGeometry x="705" y="375" width="90" height="90" as="geometry"/>
        </mxCell>
        <mxCell id="K6q-11" value="" style="whiteSpace=wrap;html=1;fillColor=#dae8fc;strokeColor=#6c8ebf;fontColor=#333333" vertex="1" parent="node_root_K6q">
          <mxGeometry x="25" y="485" width="90" height="90" as="geometry"/>
        </mxCell>
        <mxCell id="K6q-12" value="" style="whiteSpace=wrap;html=1;fillColor=#dae8fc;strokeColor=#6c8ebf;fontColor=#333333;ellipse" vertex="1" parent="node_root_K6q">
          <mxGeometry x="165" y="485" width="90" height="90" as="geometry"/>
        </mxCell>
        <mxCell id="K6q-13" value="" style="whiteSpace=wrap;html=1;fillColor=#dae8fc;strokeColor=#6c8ebf;fontColor=#333333;shape=actor" vertex="1" parent="node_root_K6q">
          <mxGeometry x="305" y="485" width="90" height="90" as="geometry"/>
        </mxCell>
        <mxCell id="K6q-14" value="" style="whiteSpace=wrap;html=1;fillColor=#dae8fc;strokeColor=#6c8ebf;fontColor=#333333;verticalLabelPosition=bottom;verticalAlign=top;shape=mxgraph.basic.tick" vertex="1" parent="node_root_K6q">
          <mxGeometry x="445" y="485" width="90" height="90" as="geometry"/>
        </mxCell>
        <mxCell id="K6q-15" value="" style="whiteSpace=wrap;html=1;fillColor=#dae8fc;strokeColor=#6c8ebf;fontColor=#333333;verticalLabelPosition=bottom;verticalAlign=top;shape=mxgraph.basic.x" vertex="1" parent="node_root_K6q">
          <mxGeometry x="585" y="485" width="90" height="90" as="geometry"/>
        </mxCell>
        <mxCell id="K6q-16" value="" style="whiteSpace=wrap;html=1;fillColor=#dae8fc;strokeColor=#6c8ebf;fontColor=#333333;shape=cloud" vertex="1" parent="node_root_K6q">
          <mxGeometry x="725" y="485" width="90" height="90" as="geometry"/>
        </mxCell>
      </root>
    </mxGraphModel>
  </diagram>
  <diagram id="9Zs" name="indian_red">
    <mxGraphModel dx="0" dy="0" background="#CD5C5C" grid="0" gridSize="10" guides="1" tooltips="1" connect="1" arrows="1" fold="1" page="1" pageScale="1" pageWidth="1169" pageHeight="827" math="0" shadow="0">
      <root>
        <mxCell id="page_root_9Zs" parent="9Zs"/>
        <mxCell id="node_root_9Zs" parent="page_root_9Zs"/>
        <mxCell id="9Zs-2" value="indian_red" style="whiteSpace=wrap;html=1;fontColor=#FFFFFF;text;fontSize=89;fontStyle=1;fillColor=none" vertex="1" parent="node_root_9Zs">
          <mxGeometry x="200" y="35" width="100" height="50" as="geometry"/>
        </mxCell>
        <mxCell id="9Zs-3" value="indian_red" style="whiteSpace=wrap;html=1;fontColor=#FFFFFF;text;fontSize=21;fontStyle=1;fillColor=none" vertex="1" parent="node_root_9Zs">
          <mxGeometry x="700" y="35" width="100" height="50" as="geometry"/>
        </mxCell>
        <mxCell id="9Zs-4" value="indian_red" style="whiteSpace=wrap;html=1;fontColor=#FFFFFF;text;fontSize=67;fontStyle=1;fillColor=none" vertex="1" parent="node_root_9Zs">
          <mxGeometry x="200" y="155" width="100" height="50" as="geometry"/>
        </mxCell>
        <mxCell id="9Zs-5" value="indian_red" style="whiteSpace=wrap;html=1;fontColor=#FFFFFF;text;fontSize=28;fontStyle=1;fillColor=none" vertex="1" parent="node_root_9Zs">
          <mxGeometry x="700" y="155" width="100" height="50" as="geometry"/>
        </mxCell>
        <mxCell id="9Zs-6" value="indian_red" style="whiteSpace=wrap;html=1;fontColor=#FFFFFF;text;fontSize=50;fontStyle=1;fillColor=none" vertex="1" parent="node_root_9Zs">
          <mxGeometry x="200" y="275" width="100" height="50" as="geometry"/>
        </mxCell>
        <mxCell id="9Zs-7" value="indian_red" style="whiteSpace=wrap;html=1;fontColor=#FFFFFF;text;fontSize=37;fontStyle=1;fillColor=none" vertex="1" parent="node_root_9Zs">
          <mxGeometry x="700" y="275" width="100" height="50" as="geometry"/>
        </mxCell>
        <mxCell id="9Zs-8" value="indian_red" style="whiteSpace=wrap;html=1;fontColor=#FFFFFF;text;fontSize=16;fontStyle=1;fillColor=none" vertex="1" parent="node_root_9Zs">
          <mxGeometry x="200" y="395" width="100" height="50" as="geometry"/>
        </mxCell>
        <mxCell id="9Zs-9" value="" style="whiteSpace=wrap;html=1;fillColor=#ffffff;strokeColor=#000000;fontColor=#000000" vertex="1" parent="node_root_9Zs">
          <mxGeometry x="705" y="375" width="90" height="90" as="geometry"/>
        </mxCell>
        <mxCell id="9Zs-11" value="" style="whiteSpace=wrap;html=1;fillColor=#dae8fc;strokeColor=#6c8ebf;fontColor=#333333" vertex="1" parent="node_root_9Zs">
          <mxGeometry x="25" y="485" width="90" height="90" as="geometry"/>
        </mxCell>
        <mxCell id="9Zs-12" value="" style="whiteSpace=wrap;html=1;fillColor=#dae8fc;strokeColor=#6c8ebf;fontColor=#333333;ellipse" vertex="1" parent="node_root_9Zs">
          <mxGeometry x="165" y="485" width="90" height="90" as="geometry"/>
        </mxCell>
        <mxCell id="9Zs-13" value="" style="whiteSpace=wrap;html=1;fillColor=#dae8fc;strokeColor=#6c8ebf;fontColor=#333333;shape=actor" vertex="1" parent="node_root_9Zs">
          <mxGeometry x="305" y="485" width="90" height="90" as="geometry"/>
        </mxCell>
        <mxCell id="9Zs-14" value="" style="whiteSpace=wrap;html=1;fillColor=#dae8fc;strokeColor=#6c8ebf;fontColor=#333333;verticalLabelPosition=bottom;verticalAlign=top;shape=mxgraph.basic.tick" vertex="1" parent="node_root_9Zs">
          <mxGeometry x="445" y="485" width="90" height="90" as="geometry"/>
        </mxCell>
        <mxCell id="9Zs-15" value="" style="whiteSpace=wrap;html=1;fillColor=#dae8fc;strokeColor=#6c8ebf;fontColor=#333333;verticalLabelPosition=bottom;verticalAlign=top;shape=mxgraph.basic.x" vertex="1" parent="node_root_9Zs">
          <mxGeometry x="585" y="485" width="90" height="90" as="geometry"/>
        </mxCell>
        <mxCell id="9Zs-16" value="" style="whiteSpace=wrap;html=1;fillColor=#dae8fc;strokeColor=#6c8ebf;fontColor=#333333;shape=cloud" vertex="1" parent="node_root_9Zs">
          <mxGeometry x="725" y="485" width="90" height="90" as="geometry"/>
        </mxCell>
      </root>
    </mxGraphModel>
  </diagram>
  <diagram id="vaF" name="tan">
    <mxGraphModel dx="0" dy="0" background="#D2B48C" grid="0" gridSize="10" guides="1" tooltips="1" connect="1" arrows="1" fold="1" page="1" pageScale="1" pageWidth="1169" pageHeight="827" math="0" shadow="0">
      <root>
        <mxCell id="page_root_vaF" parent="vaF"/>
        <mxCell id="node_root_vaF" parent="page_root_vaF"/>
        <mxCell id="vaF-2" value="tan" style="whiteSpace=wrap;html=1;fontColor=#1F2D3D;text;fontSize=89;fontStyle=1;fillColor=none" vertex="1" parent="node_root_vaF">
          <mxGeometry x="200" y="35" width="100" height="50" as="geometry"/>
        </mxCell>
        <mxCell id="vaF-3" value="tan" style="whiteSpace=wrap;html=1;fontColor=#1F2D3D;text;fontSize=21;fontStyle=1;fillColor=none" vertex="1" parent="node_root_vaF">
          <mxGeometry x="700" y="35" width="100" height="50" as="geometry"/>
        </mxCell>
        <mxCell id="vaF-4" value="tan" style="whiteSpace=wrap;html=1;fontColor=#1F2D3D;text;fontSize=67;fontStyle=1;fillColor=none" vertex="1" parent="node_root_vaF">
          <mxGeometry x="200" y="155" width="100" height="50" as="geometry"/>
        </mxCell>
        <mxCell id="vaF-5" value="tan" style="whiteSpace=wrap;html=1;fontColor=#1F2D3D;text;fontSize=28;fontStyle=1;fillColor=none" vertex="1" parent="node_root_vaF">
          <mxGeometry x="700" y="155" width="100" height="50" as="geometry"/>
        </mxCell>
        <mxCell id="vaF-6" value="tan" style="whiteSpace=wrap;html=1;fontColor=#1F2D3D;text;fontSize=50;fontStyle=1;fillColor=none" vertex="1" parent="node_root_vaF">
          <mxGeometry x="200" y="275" width="100" height="50" as="geometry"/>
        </mxCell>
        <mxCell id="vaF-7" value="tan" style="whiteSpace=wrap;html=1;fontColor=#1F2D3D;text;fontSize=37;fontStyle=1;fillColor=none" vertex="1" parent="node_root_vaF">
          <mxGeometry x="700" y="275" width="100" height="50" as="geometry"/>
        </mxCell>
        <mxCell id="vaF-8" value="tan" style="whiteSpace=wrap;html=1;fontColor=#1F2D3D;text;fontSize=16;fontStyle=1;fillColor=none" vertex="1" parent="node_root_vaF">
          <mxGeometry x="200" y="395" width="100" height="50" as="geometry"/>
        </mxCell>
        <mxCell id="vaF-9" value="" style="whiteSpace=wrap;html=1;fillColor=#ffffff;strokeColor=#000000;fontColor=#000000" vertex="1" parent="node_root_vaF">
          <mxGeometry x="705" y="375" width="90" height="90" as="geometry"/>
        </mxCell>
        <mxCell id="vaF-11" value="" style="whiteSpace=wrap;html=1;fillColor=#dae8fc;strokeColor=#6c8ebf;fontColor=#333333" vertex="1" parent="node_root_vaF">
          <mxGeometry x="25" y="485" width="90" height="90" as="geometry"/>
        </mxCell>
        <mxCell id="vaF-12" value="" style="whiteSpace=wrap;html=1;fillColor=#dae8fc;strokeColor=#6c8ebf;fontColor=#333333;ellipse" vertex="1" parent="node_root_vaF">
          <mxGeometry x="165" y="485" width="90" height="90" as="geometry"/>
        </mxCell>
        <mxCell id="vaF-13" value="" style="whiteSpace=wrap;html=1;fillColor=#dae8fc;strokeColor=#6c8ebf;fontColor=#333333;shape=actor" vertex="1" parent="node_root_vaF">
          <mxGeometry x="305" y="485" width="90" height="90" as="geometry"/>
        </mxCell>
        <mxCell id="vaF-14" value="" style="whiteSpace=wrap;html=1;fillColor=#dae8fc;strokeColor=#6c8ebf;fontColor=#333333;verticalLabelPosition=bottom;verticalAlign=top;shape=mxgraph.basic.tick" vertex="1" parent="node_root_vaF">
          <mxGeometry x="445" y="485" width="90" height="90" as="geometry"/>
        </mxCell>
        <mxCell id="vaF-15" value="" style="whiteSpace=wrap;html=1;fillColor=#dae8fc;strokeColor=#6c8ebf;fontColor=#333333;verticalLabelPosition=bottom;verticalAlign=top;shape=mxgraph.basic.x" vertex="1" parent="node_root_vaF">
          <mxGeometry x="585" y="485" width="90" height="90" as="geometry"/>
        </mxCell>
        <mxCell id="vaF-16" value="" style="whiteSpace=wrap;html=1;fillColor=#dae8fc;strokeColor=#6c8ebf;fontColor=#333333;shape=cloud" vertex="1" parent="node_root_vaF">
          <mxGeometry x="725" y="485" width="90" height="90" as="geometry"/>
        </mxCell>
      </root>
    </mxGraphModel>
  </diagram>
  <diagram id="OLE" name="burly_wood">
    <mxGraphModel dx="0" dy="0" background="#DEB887" grid="0" gridSize="10" guides="1" tooltips="1" connect="1" arrows="1" fold="1" page="1" pageScale="1" pageWidth="1169" pageHeight="827" math="0" shadow="0">
      <root>
        <mxCell id="page_root_OLE" parent="OLE"/>
        <mxCell id="node_root_OLE" parent="page_root_OLE"/>
        <mxCell id="OLE-2" value="burly_wood" style="whiteSpace=wrap;html=1;fontColor=#1F2D3D;text;fontSize=89;fontStyle=1;fillColor=none" vertex="1" parent="node_root_OLE">
          <mxGeometry x="200" y="35" width="100" height="50" as="geometry"/>
        </mxCell>
        <mxCell id="OLE-3" value="burly_wood" style="whiteSpace=wrap;html=1;fontColor=#1F2D3D;text;fontSize=21;fontStyle=1;fillColor=none" vertex="1" parent="node_root_OLE">
          <mxGeometry x="700" y="35" width="100" height="50" as="geometry"/>
        </mxCell>
        <mxCell id="OLE-4" value="burly_wood" style="whiteSpace=wrap;html=1;fontColor=#1F2D3D;text;fontSize=67;fontStyle=1;fillColor=none" vertex="1" parent="node_root_OLE">
          <mxGeometry x="200" y="155" width="100" height="50" as="geometry"/>
        </mxCell>
        <mxCell id="OLE-5" value="burly_wood" style="whiteSpace=wrap;html=1;fontColor=#1F2D3D;text;fontSize=28;fontStyle=1;fillColor=none" vertex="1" parent="node_root_OLE">
          <mxGeometry x="700" y="155" width="100" height="50" as="geometry"/>
        </mxCell>
        <mxCell id="OLE-6" value="burly_wood" style="whiteSpace=wrap;html=1;fontColor=#1F2D3D;text;fontSize=50;fontStyle=1;fillColor=none" vertex="1" parent="node_root_OLE">
          <mxGeometry x="200" y="275" width="100" height="50" as="geometry"/>
        </mxCell>
        <mxCell id="OLE-7" value="burly_wood" style="whiteSpace=wrap;html=1;fontColor=#1F2D3D;text;fontSize=37;fontStyle=1;fillColor=none" vertex="1" parent="node_root_OLE">
          <mxGeometry x="700" y="275" width="100" height="50" as="geometry"/>
        </mxCell>
        <mxCell id="OLE-8" value="burly_wood" style="whiteSpace=wrap;html=1;fontColor=#1F2D3D;text;fontSize=16;fontStyle=1;fillColor=none" vertex="1" parent="node_root_OLE">
          <mxGeometry x="200" y="395" width="100" height="50" as="geometry"/>
        </mxCell>
        <mxCell id="OLE-9" value="" style="whiteSpace=wrap;html=1;fillColor=#ffffff;strokeColor=#000000;fontColor=#000000" vertex="1" parent="node_root_OLE">
          <mxGeometry x="705" y="375" width="90" height="90" as="geometry"/>
        </mxCell>
        <mxCell id="OLE-11" value="" style="whiteSpace=wrap;html=1;fillColor=#dae8fc;strokeColor=#6c8ebf;fontColor=#333333" vertex="1" parent="node_root_OLE">
          <mxGeometry x="25" y="485" width="90" height="90" as="geometry"/>
        </mxCell>
        <mxCell id="OLE-12" value="" style="whiteSpace=wrap;html=1;fillColor=#dae8fc;strokeColor=#6c8ebf;fontColor=#333333;ellipse" vertex="1" parent="node_root_OLE">
          <mxGeometry x="165" y="485" width="90" height="90" as="geometry"/>
        </mxCell>
        <mxCell id="OLE-13" value="" style="whiteSpace=wrap;html=1;fillColor=#dae8fc;strokeColor=#6c8ebf;fontColor=#333333;shape=actor" vertex="1" parent="node_root_OLE">
          <mxGeometry x="305" y="485" width="90" height="90" as="geometry"/>
        </mxCell>
        <mxCell id="OLE-14" value="" style="whiteSpace=wrap;html=1;fillColor=#dae8fc;strokeColor=#6c8ebf;fontColor=#333333;verticalLabelPosition=bottom;verticalAlign=top;shape=mxgraph.basic.tick" vertex="1" parent="node_root_OLE">
          <mxGeometry x="445" y="485" width="90" height="90" as="geometry"/>
        </mxCell>
        <mxCell id="OLE-15" value="" style="whiteSpace=wrap;html=1;fillColor=#dae8fc;strokeColor=#6c8ebf;fontColor=#333333;verticalLabelPosition=bottom;verticalAlign=top;shape=mxgraph.basic.x" vertex="1" parent="node_root_OLE">
          <mxGeometry x="585" y="485" width="90" height="90" as="geometry"/>
        </mxCell>
        <mxCell id="OLE-16" value="" style="whiteSpace=wrap;html=1;fillColor=#dae8fc;strokeColor=#6c8ebf;fontColor=#333333;shape=cloud" vertex="1" parent="node_root_OLE">
          <mxGeometry x="725" y="485" width="90" height="90" as="geometry"/>
        </mxCell>
      </root>
    </mxGraphModel>
  </diagram>
  <diagram id="dGD" name="wheat">
    <mxGraphModel dx="0" dy="0" background="#F5DEB3" grid="0" gridSize="10" guides="1" tooltips="1" connect="1" arrows="1" fold="1" page="1" pageScale="1" pageWidth="1169" pageHeight="827" math="0" shadow="0">
      <root>
        <mxCell id="page_root_dGD" parent="dGD"/>
        <mxCell id="node_root_dGD" parent="page_root_dGD"/>
        <mxCell id="dGD-2" value="wheat" style="whiteSpace=wrap;html=1;fontColor=#1F2D3D;text;fontSize=89;fontStyle=1;fillColor=none" vertex="1" parent="node_root_dGD">
          <mxGeometry x="200" y="35" width="100" height="50" as="geometry"/>
        </mxCell>
        <mxCell id="dGD-3" value="wheat" style="whiteSpace=wrap;html=1;fontColor=#1F2D3D;text;fontSize=21;fontStyle=1;fillColor=none" vertex="1" parent="node_root_dGD">
          <mxGeometry x="700" y="35" width="100" height="50" as="geometry"/>
        </mxCell>
        <mxCell id="dGD-4" value="wheat" style="whiteSpace=wrap;html=1;fontColor=#1F2D3D;text;fontSize=67;fontStyle=1;fillColor=none" vertex="1" parent="node_root_dGD">
          <mxGeometry x="200" y="155" width="100" height="50" as="geometry"/>
        </mxCell>
        <mxCell id="dGD-5" value="wheat" style="whiteSpace=wrap;html=1;fontColor=#1F2D3D;text;fontSize=28;fontStyle=1;fillColor=none" vertex="1" parent="node_root_dGD">
          <mxGeometry x="700" y="155" width="100" height="50" as="geometry"/>
        </mxCell>
        <mxCell id="dGD-6" value="wheat" style="whiteSpace=wrap;html=1;fontColor=#1F2D3D;text;fontSize=50;fontStyle=1;fillColor=none" vertex="1" parent="node_root_dGD">
          <mxGeometry x="200" y="275" width="100" height="50" as="geometry"/>
        </mxCell>
        <mxCell id="dGD-7" value="wheat" style="whiteSpace=wrap;html=1;fontColor=#1F2D3D;text;fontSize=37;fontStyle=1;fillColor=none" vertex="1" parent="node_root_dGD">
          <mxGeometry x="700" y="275" width="100" height="50" as="geometry"/>
        </mxCell>
        <mxCell id="dGD-8" value="wheat" style="whiteSpace=wrap;html=1;fontColor=#1F2D3D;text;fontSize=16;fontStyle=1;fillColor=none" vertex="1" parent="node_root_dGD">
          <mxGeometry x="200" y="395" width="100" height="50" as="geometry"/>
        </mxCell>
        <mxCell id="dGD-9" value="" style="whiteSpace=wrap;html=1;fillColor=#ffffff;strokeColor=#000000;fontColor=#000000" vertex="1" parent="node_root_dGD">
          <mxGeometry x="705" y="375" width="90" height="90" as="geometry"/>
        </mxCell>
        <mxCell id="dGD-11" value="" style="whiteSpace=wrap;html=1;fillColor=#dae8fc;strokeColor=#6c8ebf;fontColor=#333333" vertex="1" parent="node_root_dGD">
          <mxGeometry x="25" y="485" width="90" height="90" as="geometry"/>
        </mxCell>
        <mxCell id="dGD-12" value="" style="whiteSpace=wrap;html=1;fillColor=#dae8fc;strokeColor=#6c8ebf;fontColor=#333333;ellipse" vertex="1" parent="node_root_dGD">
          <mxGeometry x="165" y="485" width="90" height="90" as="geometry"/>
        </mxCell>
        <mxCell id="dGD-13" value="" style="whiteSpace=wrap;html=1;fillColor=#dae8fc;strokeColor=#6c8ebf;fontColor=#333333;shape=actor" vertex="1" parent="node_root_dGD">
          <mxGeometry x="305" y="485" width="90" height="90" as="geometry"/>
        </mxCell>
        <mxCell id="dGD-14" value="" style="whiteSpace=wrap;html=1;fillColor=#dae8fc;strokeColor=#6c8ebf;fontColor=#333333;verticalLabelPosition=bottom;verticalAlign=top;shape=mxgraph.basic.tick" vertex="1" parent="node_root_dGD">
          <mxGeometry x="445" y="485" width="90" height="90" as="geometry"/>
        </mxCell>
        <mxCell id="dGD-15" value="" style="whiteSpace=wrap;html=1;fillColor=#dae8fc;strokeColor=#6c8ebf;fontColor=#333333;verticalLabelPosition=bottom;verticalAlign=top;shape=mxgraph.basic.x" vertex="1" parent="node_root_dGD">
          <mxGeometry x="585" y="485" width="90" height="90" as="geometry"/>
        </mxCell>
        <mxCell id="dGD-16" value="" style="whiteSpace=wrap;html=1;fillColor=#dae8fc;strokeColor=#6c8ebf;fontColor=#333333;shape=cloud" vertex="1" parent="node_root_dGD">
          <mxGeometry x="725" y="485" width="90" height="90" as="geometry"/>
        </mxCell>
      </root>
    </mxGraphModel>
  </diagram>
  <diagram id="diI" name="linen">
    <mxGraphModel dx="0" dy="0" background="#FAF0E6" grid="0" gridSize="10" guides="1" tooltips="1" connect="1" arrows="1" fold="1" page="1" pageScale="1" pageWidth="1169" pageHeight="827" math="0" shadow="0">
      <root>
        <mxCell id="page_root_diI" parent="diI"/>
        <mxCell id="node_root_diI" parent="page_root_diI"/>
        <mxCell id="diI-2" value="linen" style="whiteSpace=wrap;html=1;fontColor=#1F2D3D;text;fontSize=89;fontStyle=1;fillColor=none" vertex="1" parent="node_root_diI">
          <mxGeometry x="200" y="35" width="100" height="50" as="geometry"/>
        </mxCell>
        <mxCell id="diI-3" value="linen" style="whiteSpace=wrap;html=1;fontColor=#1F2D3D;text;fontSize=21;fontStyle=1;fillColor=none" vertex="1" parent="node_root_diI">
          <mxGeometry x="700" y="35" width="100" height="50" as="geometry"/>
        </mxCell>
        <mxCell id="diI-4" value="linen" style="whiteSpace=wrap;html=1;fontColor=#1F2D3D;text;fontSize=67;fontStyle=1;fillColor=none" vertex="1" parent="node_root_diI">
          <mxGeometry x="200" y="155" width="100" height="50" as="geometry"/>
        </mxCell>
        <mxCell id="diI-5" value="linen" style="whiteSpace=wrap;html=1;fontColor=#1F2D3D;text;fontSize=28;fontStyle=1;fillColor=none" vertex="1" parent="node_root_diI">
          <mxGeometry x="700" y="155" width="100" height="50" as="geometry"/>
        </mxCell>
        <mxCell id="diI-6" value="linen" style="whiteSpace=wrap;html=1;fontColor=#1F2D3D;text;fontSize=50;fontStyle=1;fillColor=none" vertex="1" parent="node_root_diI">
          <mxGeometry x="200" y="275" width="100" height="50" as="geometry"/>
        </mxCell>
        <mxCell id="diI-7" value="linen" style="whiteSpace=wrap;html=1;fontColor=#1F2D3D;text;fontSize=37;fontStyle=1;fillColor=none" vertex="1" parent="node_root_diI">
          <mxGeometry x="700" y="275" width="100" height="50" as="geometry"/>
        </mxCell>
        <mxCell id="diI-8" value="linen" style="whiteSpace=wrap;html=1;fontColor=#1F2D3D;text;fontSize=16;fontStyle=1;fillColor=none" vertex="1" parent="node_root_diI">
          <mxGeometry x="200" y="395" width="100" height="50" as="geometry"/>
        </mxCell>
        <mxCell id="diI-9" value="" style="whiteSpace=wrap;html=1;fillColor=#ffffff;strokeColor=#000000;fontColor=#000000" vertex="1" parent="node_root_diI">
          <mxGeometry x="705" y="375" width="90" height="90" as="geometry"/>
        </mxCell>
        <mxCell id="diI-11" value="" style="whiteSpace=wrap;html=1;fillColor=#dae8fc;strokeColor=#6c8ebf;fontColor=#333333" vertex="1" parent="node_root_diI">
          <mxGeometry x="25" y="485" width="90" height="90" as="geometry"/>
        </mxCell>
        <mxCell id="diI-12" value="" style="whiteSpace=wrap;html=1;fillColor=#dae8fc;strokeColor=#6c8ebf;fontColor=#333333;ellipse" vertex="1" parent="node_root_diI">
          <mxGeometry x="165" y="485" width="90" height="90" as="geometry"/>
        </mxCell>
        <mxCell id="diI-13" value="" style="whiteSpace=wrap;html=1;fillColor=#dae8fc;strokeColor=#6c8ebf;fontColor=#333333;shape=actor" vertex="1" parent="node_root_diI">
          <mxGeometry x="305" y="485" width="90" height="90" as="geometry"/>
        </mxCell>
        <mxCell id="diI-14" value="" style="whiteSpace=wrap;html=1;fillColor=#dae8fc;strokeColor=#6c8ebf;fontColor=#333333;verticalLabelPosition=bottom;verticalAlign=top;shape=mxgraph.basic.tick" vertex="1" parent="node_root_diI">
          <mxGeometry x="445" y="485" width="90" height="90" as="geometry"/>
        </mxCell>
        <mxCell id="diI-15" value="" style="whiteSpace=wrap;html=1;fillColor=#dae8fc;strokeColor=#6c8ebf;fontColor=#333333;verticalLabelPosition=bottom;verticalAlign=top;shape=mxgraph.basic.x" vertex="1" parent="node_root_diI">
          <mxGeometry x="585" y="485" width="90" height="90" as="geometry"/>
        </mxCell>
        <mxCell id="diI-16" value="" style="whiteSpace=wrap;html=1;fillColor=#dae8fc;strokeColor=#6c8ebf;fontColor=#333333;shape=cloud" vertex="1" parent="node_root_diI">
          <mxGeometry x="725" y="485" width="90" height="90" as="geometry"/>
        </mxCell>
      </root>
    </mxGraphModel>
  </diagram>
  <diagram id="ISt" name="light_golden_rod_yellow">
    <mxGraphModel dx="0" dy="0" background="#FAFAD2" grid="0" gridSize="10" guides="1" tooltips="1" connect="1" arrows="1" fold="1" page="1" pageScale="1" pageWidth="1169" pageHeight="827" math="0" shadow="0">
      <root>
        <mxCell id="page_root_ISt" parent="ISt"/>
        <mxCell id="node_root_ISt" parent="page_root_ISt"/>
        <mxCell id="ISt-2" value="light_golden_rod_yellow" style="whiteSpace=wrap;html=1;fontColor=#1F2D3D;text;fontSize=89;fontStyle=1;fillColor=none" vertex="1" parent="node_root_ISt">
          <mxGeometry x="200" y="35" width="100" height="50" as="geometry"/>
        </mxCell>
        <mxCell id="ISt-3" value="light_golden_rod_yellow" style="whiteSpace=wrap;html=1;fontColor=#1F2D3D;text;fontSize=21;fontStyle=1;fillColor=none" vertex="1" parent="node_root_ISt">
          <mxGeometry x="700" y="35" width="100" height="50" as="geometry"/>
        </mxCell>
        <mxCell id="ISt-4" value="light_golden_rod_yellow" style="whiteSpace=wrap;html=1;fontColor=#1F2D3D;text;fontSize=67;fontStyle=1;fillColor=none" vertex="1" parent="node_root_ISt">
          <mxGeometry x="200" y="155" width="100" height="50" as="geometry"/>
        </mxCell>
        <mxCell id="ISt-5" value="light_golden_rod_yellow" style="whiteSpace=wrap;html=1;fontColor=#1F2D3D;text;fontSize=28;fontStyle=1;fillColor=none" vertex="1" parent="node_root_ISt">
          <mxGeometry x="700" y="155" width="100" height="50" as="geometry"/>
        </mxCell>
        <mxCell id="ISt-6" value="light_golden_rod_yellow" style="whiteSpace=wrap;html=1;fontColor=#1F2D3D;text;fontSize=50;fontStyle=1;fillColor=none" vertex="1" parent="node_root_ISt">
          <mxGeometry x="200" y="275" width="100" height="50" as="geometry"/>
        </mxCell>
        <mxCell id="ISt-7" value="light_golden_rod_yellow" style="whiteSpace=wrap;html=1;fontColor=#1F2D3D;text;fontSize=37;fontStyle=1;fillColor=none" vertex="1" parent="node_root_ISt">
          <mxGeometry x="700" y="275" width="100" height="50" as="geometry"/>
        </mxCell>
        <mxCell id="ISt-8" value="light_golden_rod_yellow" style="whiteSpace=wrap;html=1;fontColor=#1F2D3D;text;fontSize=16;fontStyle=1;fillColor=none" vertex="1" parent="node_root_ISt">
          <mxGeometry x="200" y="395" width="100" height="50" as="geometry"/>
        </mxCell>
        <mxCell id="ISt-9" value="" style="whiteSpace=wrap;html=1;fillColor=#ffffff;strokeColor=#000000;fontColor=#000000" vertex="1" parent="node_root_ISt">
          <mxGeometry x="705" y="375" width="90" height="90" as="geometry"/>
        </mxCell>
        <mxCell id="ISt-11" value="" style="whiteSpace=wrap;html=1;fillColor=#dae8fc;strokeColor=#6c8ebf;fontColor=#333333" vertex="1" parent="node_root_ISt">
          <mxGeometry x="25" y="485" width="90" height="90" as="geometry"/>
        </mxCell>
        <mxCell id="ISt-12" value="" style="whiteSpace=wrap;html=1;fillColor=#dae8fc;strokeColor=#6c8ebf;fontColor=#333333;ellipse" vertex="1" parent="node_root_ISt">
          <mxGeometry x="165" y="485" width="90" height="90" as="geometry"/>
        </mxCell>
        <mxCell id="ISt-13" value="" style="whiteSpace=wrap;html=1;fillColor=#dae8fc;strokeColor=#6c8ebf;fontColor=#333333;shape=actor" vertex="1" parent="node_root_ISt">
          <mxGeometry x="305" y="485" width="90" height="90" as="geometry"/>
        </mxCell>
        <mxCell id="ISt-14" value="" style="whiteSpace=wrap;html=1;fillColor=#dae8fc;strokeColor=#6c8ebf;fontColor=#333333;verticalLabelPosition=bottom;verticalAlign=top;shape=mxgraph.basic.tick" vertex="1" parent="node_root_ISt">
          <mxGeometry x="445" y="485" width="90" height="90" as="geometry"/>
        </mxCell>
        <mxCell id="ISt-15" value="" style="whiteSpace=wrap;html=1;fillColor=#dae8fc;strokeColor=#6c8ebf;fontColor=#333333;verticalLabelPosition=bottom;verticalAlign=top;shape=mxgraph.basic.x" vertex="1" parent="node_root_ISt">
          <mxGeometry x="585" y="485" width="90" height="90" as="geometry"/>
        </mxCell>
        <mxCell id="ISt-16" value="" style="whiteSpace=wrap;html=1;fillColor=#dae8fc;strokeColor=#6c8ebf;fontColor=#333333;shape=cloud" vertex="1" parent="node_root_ISt">
          <mxGeometry x="725" y="485" width="90" height="90" as="geometry"/>
        </mxCell>
      </root>
    </mxGraphModel>
  </diagram>
  <diagram id="wTY" name="pale_gray">
    <mxGraphModel dx="0" dy="0" background="#FAFAFA" grid="0" gridSize="10" guides="1" tooltips="1" connect="1" arrows="1" fold="1" page="1" pageScale="1" pageWidth="1169" pageHeight="827" math="0" shadow="0">
      <root>
        <mxCell id="page_root_wTY" parent="wTY"/>
        <mxCell id="node_root_wTY" parent="page_root_wTY"/>
        <mxCell id="wTY-2" value="pale_gray" style="whiteSpace=wrap;html=1;fontColor=#1F2D3D;text;fontSize=89;fontStyle=1;fillColor=none" vertex="1" parent="node_root_wTY">
          <mxGeometry x="200" y="35" width="100" height="50" as="geometry"/>
        </mxCell>
        <mxCell id="wTY-3" value="pale_gray" style="whiteSpace=wrap;html=1;fontColor=#1F2D3D;text;fontSize=21;fontStyle=1;fillColor=none" vertex="1" parent="node_root_wTY">
          <mxGeometry x="700" y="35" width="100" height="50" as="geometry"/>
        </mxCell>
        <mxCell id="wTY-4" value="pale_gray" style="whiteSpace=wrap;html=1;fontColor=#1F2D3D;text;fontSize=67;fontStyle=1;fillColor=none" vertex="1" parent="node_root_wTY">
          <mxGeometry x="200" y="155" width="100" height="50" as="geometry"/>
        </mxCell>
        <mxCell id="wTY-5" value="pale_gray" style="whiteSpace=wrap;html=1;fontColor=#1F2D3D;text;fontSize=28;fontStyle=1;fillColor=none" vertex="1" parent="node_root_wTY">
          <mxGeometry x="700" y="155" width="100" height="50" as="geometry"/>
        </mxCell>
        <mxCell id="wTY-6" value="pale_gray" style="whiteSpace=wrap;html=1;fontColor=#1F2D3D;text;fontSize=50;fontStyle=1;fillColor=none" vertex="1" parent="node_root_wTY">
          <mxGeometry x="200" y="275" width="100" height="50" as="geometry"/>
        </mxCell>
        <mxCell id="wTY-7" value="pale_gray" style="whiteSpace=wrap;html=1;fontColor=#1F2D3D;text;fontSize=37;fontStyle=1;fillColor=none" vertex="1" parent="node_root_wTY">
          <mxGeometry x="700" y="275" width="100" height="50" as="geometry"/>
        </mxCell>
        <mxCell id="wTY-8" value="pale_gray" style="whiteSpace=wrap;html=1;fontColor=#1F2D3D;text;fontSize=16;fontStyle=1;fillColor=none" vertex="1" parent="node_root_wTY">
          <mxGeometry x="200" y="395" width="100" height="50" as="geometry"/>
        </mxCell>
        <mxCell id="wTY-9" value="" style="whiteSpace=wrap;html=1;fillColor=#ffffff;strokeColor=#000000;fontColor=#000000" vertex="1" parent="node_root_wTY">
          <mxGeometry x="705" y="375" width="90" height="90" as="geometry"/>
        </mxCell>
        <mxCell id="wTY-11" value="" style="whiteSpace=wrap;html=1;fillColor=#dae8fc;strokeColor=#6c8ebf;fontColor=#333333" vertex="1" parent="node_root_wTY">
          <mxGeometry x="25" y="485" width="90" height="90" as="geometry"/>
        </mxCell>
        <mxCell id="wTY-12" value="" style="whiteSpace=wrap;html=1;fillColor=#dae8fc;strokeColor=#6c8ebf;fontColor=#333333;ellipse" vertex="1" parent="node_root_wTY">
          <mxGeometry x="165" y="485" width="90" height="90" as="geometry"/>
        </mxCell>
        <mxCell id="wTY-13" value="" style="whiteSpace=wrap;html=1;fillColor=#dae8fc;strokeColor=#6c8ebf;fontColor=#333333;shape=actor" vertex="1" parent="node_root_wTY">
          <mxGeometry x="305" y="485" width="90" height="90" as="geometry"/>
        </mxCell>
        <mxCell id="wTY-14" value="" style="whiteSpace=wrap;html=1;fillColor=#dae8fc;strokeColor=#6c8ebf;fontColor=#333333;verticalLabelPosition=bottom;verticalAlign=top;shape=mxgraph.basic.tick" vertex="1" parent="node_root_wTY">
          <mxGeometry x="445" y="485" width="90" height="90" as="geometry"/>
        </mxCell>
        <mxCell id="wTY-15" value="" style="whiteSpace=wrap;html=1;fillColor=#dae8fc;strokeColor=#6c8ebf;fontColor=#333333;verticalLabelPosition=bottom;verticalAlign=top;shape=mxgraph.basic.x" vertex="1" parent="node_root_wTY">
          <mxGeometry x="585" y="485" width="90" height="90" as="geometry"/>
        </mxCell>
        <mxCell id="wTY-16" value="" style="whiteSpace=wrap;html=1;fillColor=#dae8fc;strokeColor=#6c8ebf;fontColor=#333333;shape=cloud" vertex="1" parent="node_root_wTY">
          <mxGeometry x="725" y="485" width="90" height="90" as="geometry"/>
        </mxCell>
      </root>
    </mxGraphModel>
  </diagram>
  <diagram id="WLf" name="peach_puff">
    <mxGraphModel dx="0" dy="0" background="#FFDAB9" grid="0" gridSize="10" guides="1" tooltips="1" connect="1" arrows="1" fold="1" page="1" pageScale="1" pageWidth="1169" pageHeight="827" math="0" shadow="0">
      <root>
        <mxCell id="page_root_WLf" parent="WLf"/>
        <mxCell id="node_root_WLf" parent="page_root_WLf"/>
        <mxCell id="WLf-2" value="peach_puff" style="whiteSpace=wrap;html=1;fontColor=#1F2D3D;text;fontSize=89;fontStyle=1;fillColor=none" vertex="1" parent="node_root_WLf">
          <mxGeometry x="200" y="35" width="100" height="50" as="geometry"/>
        </mxCell>
        <mxCell id="WLf-3" value="peach_puff" style="whiteSpace=wrap;html=1;fontColor=#1F2D3D;text;fontSize=21;fontStyle=1;fillColor=none" vertex="1" parent="node_root_WLf">
          <mxGeometry x="700" y="35" width="100" height="50" as="geometry"/>
        </mxCell>
        <mxCell id="WLf-4" value="peach_puff" style="whiteSpace=wrap;html=1;fontColor=#1F2D3D;text;fontSize=67;fontStyle=1;fillColor=none" vertex="1" parent="node_root_WLf">
          <mxGeometry x="200" y="155" width="100" height="50" as="geometry"/>
        </mxCell>
        <mxCell id="WLf-5" value="peach_puff" style="whiteSpace=wrap;html=1;fontColor=#1F2D3D;text;fontSize=28;fontStyle=1;fillColor=none" vertex="1" parent="node_root_WLf">
          <mxGeometry x="700" y="155" width="100" height="50" as="geometry"/>
        </mxCell>
        <mxCell id="WLf-6" value="peach_puff" style="whiteSpace=wrap;html=1;fontColor=#1F2D3D;text;fontSize=50;fontStyle=1;fillColor=none" vertex="1" parent="node_root_WLf">
          <mxGeometry x="200" y="275" width="100" height="50" as="geometry"/>
        </mxCell>
        <mxCell id="WLf-7" value="peach_puff" style="whiteSpace=wrap;html=1;fontColor=#1F2D3D;text;fontSize=37;fontStyle=1;fillColor=none" vertex="1" parent="node_root_WLf">
          <mxGeometry x="700" y="275" width="100" height="50" as="geometry"/>
        </mxCell>
        <mxCell id="WLf-8" value="peach_puff" style="whiteSpace=wrap;html=1;fontColor=#1F2D3D;text;fontSize=16;fontStyle=1;fillColor=none" vertex="1" parent="node_root_WLf">
          <mxGeometry x="200" y="395" width="100" height="50" as="geometry"/>
        </mxCell>
        <mxCell id="WLf-9" value="" style="whiteSpace=wrap;html=1;fillColor=#ffffff;strokeColor=#000000;fontColor=#000000" vertex="1" parent="node_root_WLf">
          <mxGeometry x="705" y="375" width="90" height="90" as="geometry"/>
        </mxCell>
        <mxCell id="WLf-11" value="" style="whiteSpace=wrap;html=1;fillColor=#dae8fc;strokeColor=#6c8ebf;fontColor=#333333" vertex="1" parent="node_root_WLf">
          <mxGeometry x="25" y="485" width="90" height="90" as="geometry"/>
        </mxCell>
        <mxCell id="WLf-12" value="" style="whiteSpace=wrap;html=1;fillColor=#dae8fc;strokeColor=#6c8ebf;fontColor=#333333;ellipse" vertex="1" parent="node_root_WLf">
          <mxGeometry x="165" y="485" width="90" height="90" as="geometry"/>
        </mxCell>
        <mxCell id="WLf-13" value="" style="whiteSpace=wrap;html=1;fillColor=#dae8fc;strokeColor=#6c8ebf;fontColor=#333333;shape=actor" vertex="1" parent="node_root_WLf">
          <mxGeometry x="305" y="485" width="90" height="90" as="geometry"/>
        </mxCell>
        <mxCell id="WLf-14" value="" style="whiteSpace=wrap;html=1;fillColor=#dae8fc;strokeColor=#6c8ebf;fontColor=#333333;verticalLabelPosition=bottom;verticalAlign=top;shape=mxgraph.basic.tick" vertex="1" parent="node_root_WLf">
          <mxGeometry x="445" y="485" width="90" height="90" as="geometry"/>
        </mxCell>
        <mxCell id="WLf-15" value="" style="whiteSpace=wrap;html=1;fillColor=#dae8fc;strokeColor=#6c8ebf;fontColor=#333333;verticalLabelPosition=bottom;verticalAlign=top;shape=mxgraph.basic.x" vertex="1" parent="node_root_WLf">
          <mxGeometry x="585" y="485" width="90" height="90" as="geometry"/>
        </mxCell>
        <mxCell id="WLf-16" value="" style="whiteSpace=wrap;html=1;fillColor=#dae8fc;strokeColor=#6c8ebf;fontColor=#333333;shape=cloud" vertex="1" parent="node_root_WLf">
          <mxGeometry x="725" y="485" width="90" height="90" as="geometry"/>
        </mxCell>
      </root>
    </mxGraphModel>
  </diagram>
  <diagram id="5g3" name="cornsilk">
    <mxGraphModel dx="0" dy="0" background="#FFF8DC" grid="0" gridSize="10" guides="1" tooltips="1" connect="1" arrows="1" fold="1" page="1" pageScale="1" pageWidth="1169" pageHeight="827" math="0" shadow="0">
      <root>
        <mxCell id="page_root_5g3" parent="5g3"/>
        <mxCell id="node_root_5g3" parent="page_root_5g3"/>
        <mxCell id="5g3-2" value="cornsilk" style="whiteSpace=wrap;html=1;fontColor=#1F2D3D;text;fontSize=89;fontStyle=1;fillColor=none" vertex="1" parent="node_root_5g3">
          <mxGeometry x="200" y="35" width="100" height="50" as="geometry"/>
        </mxCell>
        <mxCell id="5g3-3" value="cornsilk" style="whiteSpace=wrap;html=1;fontColor=#1F2D3D;text;fontSize=21;fontStyle=1;fillColor=none" vertex="1" parent="node_root_5g3">
          <mxGeometry x="700" y="35" width="100" height="50" as="geometry"/>
        </mxCell>
        <mxCell id="5g3-4" value="cornsilk" style="whiteSpace=wrap;html=1;fontColor=#1F2D3D;text;fontSize=67;fontStyle=1;fillColor=none" vertex="1" parent="node_root_5g3">
          <mxGeometry x="200" y="155" width="100" height="50" as="geometry"/>
        </mxCell>
        <mxCell id="5g3-5" value="cornsilk" style="whiteSpace=wrap;html=1;fontColor=#1F2D3D;text;fontSize=28;fontStyle=1;fillColor=none" vertex="1" parent="node_root_5g3">
          <mxGeometry x="700" y="155" width="100" height="50" as="geometry"/>
        </mxCell>
        <mxCell id="5g3-6" value="cornsilk" style="whiteSpace=wrap;html=1;fontColor=#1F2D3D;text;fontSize=50;fontStyle=1;fillColor=none" vertex="1" parent="node_root_5g3">
          <mxGeometry x="200" y="275" width="100" height="50" as="geometry"/>
        </mxCell>
        <mxCell id="5g3-7" value="cornsilk" style="whiteSpace=wrap;html=1;fontColor=#1F2D3D;text;fontSize=37;fontStyle=1;fillColor=none" vertex="1" parent="node_root_5g3">
          <mxGeometry x="700" y="275" width="100" height="50" as="geometry"/>
        </mxCell>
        <mxCell id="5g3-8" value="cornsilk" style="whiteSpace=wrap;html=1;fontColor=#1F2D3D;text;fontSize=16;fontStyle=1;fillColor=none" vertex="1" parent="node_root_5g3">
          <mxGeometry x="200" y="395" width="100" height="50" as="geometry"/>
        </mxCell>
        <mxCell id="5g3-9" value="" style="whiteSpace=wrap;html=1;fillColor=#ffffff;strokeColor=#000000;fontColor=#000000" vertex="1" parent="node_root_5g3">
          <mxGeometry x="705" y="375" width="90" height="90" as="geometry"/>
        </mxCell>
        <mxCell id="5g3-11" value="" style="whiteSpace=wrap;html=1;fillColor=#dae8fc;strokeColor=#6c8ebf;fontColor=#333333" vertex="1" parent="node_root_5g3">
          <mxGeometry x="25" y="485" width="90" height="90" as="geometry"/>
        </mxCell>
        <mxCell id="5g3-12" value="" style="whiteSpace=wrap;html=1;fillColor=#dae8fc;strokeColor=#6c8ebf;fontColor=#333333;ellipse" vertex="1" parent="node_root_5g3">
          <mxGeometry x="165" y="485" width="90" height="90" as="geometry"/>
        </mxCell>
        <mxCell id="5g3-13" value="" style="whiteSpace=wrap;html=1;fillColor=#dae8fc;strokeColor=#6c8ebf;fontColor=#333333;shape=actor" vertex="1" parent="node_root_5g3">
          <mxGeometry x="305" y="485" width="90" height="90" as="geometry"/>
        </mxCell>
        <mxCell id="5g3-14" value="" style="whiteSpace=wrap;html=1;fillColor=#dae8fc;strokeColor=#6c8ebf;fontColor=#333333;verticalLabelPosition=bottom;verticalAlign=top;shape=mxgraph.basic.tick" vertex="1" parent="node_root_5g3">
          <mxGeometry x="445" y="485" width="90" height="90" as="geometry"/>
        </mxCell>
        <mxCell id="5g3-15" value="" style="whiteSpace=wrap;html=1;fillColor=#dae8fc;strokeColor=#6c8ebf;fontColor=#333333;verticalLabelPosition=bottom;verticalAlign=top;shape=mxgraph.basic.x" vertex="1" parent="node_root_5g3">
          <mxGeometry x="585" y="485" width="90" height="90" as="geometry"/>
        </mxCell>
        <mxCell id="5g3-16" value="" style="whiteSpace=wrap;html=1;fillColor=#dae8fc;strokeColor=#6c8ebf;fontColor=#333333;shape=cloud" vertex="1" parent="node_root_5g3">
          <mxGeometry x="725" y="485" width="90" height="90" as="geometry"/>
        </mxCell>
      </root>
    </mxGraphModel>
  </diagram>
  <diagram id="6lw" name="snow">
    <mxGraphModel dx="0" dy="0" background="#FFFAFA" grid="0" gridSize="10" guides="1" tooltips="1" connect="1" arrows="1" fold="1" page="1" pageScale="1" pageWidth="1169" pageHeight="827" math="0" shadow="0">
      <root>
        <mxCell id="page_root_6lw" parent="6lw"/>
        <mxCell id="node_root_6lw" parent="page_root_6lw"/>
        <mxCell id="6lw-2" value="snow" style="whiteSpace=wrap;html=1;fontColor=#1F2D3D;text;fontSize=89;fontStyle=1;fillColor=none" vertex="1" parent="node_root_6lw">
          <mxGeometry x="200" y="35" width="100" height="50" as="geometry"/>
        </mxCell>
        <mxCell id="6lw-3" value="snow" style="whiteSpace=wrap;html=1;fontColor=#1F2D3D;text;fontSize=21;fontStyle=1;fillColor=none" vertex="1" parent="node_root_6lw">
          <mxGeometry x="700" y="35" width="100" height="50" as="geometry"/>
        </mxCell>
        <mxCell id="6lw-4" value="snow" style="whiteSpace=wrap;html=1;fontColor=#1F2D3D;text;fontSize=67;fontStyle=1;fillColor=none" vertex="1" parent="node_root_6lw">
          <mxGeometry x="200" y="155" width="100" height="50" as="geometry"/>
        </mxCell>
        <mxCell id="6lw-5" value="snow" style="whiteSpace=wrap;html=1;fontColor=#1F2D3D;text;fontSize=28;fontStyle=1;fillColor=none" vertex="1" parent="node_root_6lw">
          <mxGeometry x="700" y="155" width="100" height="50" as="geometry"/>
        </mxCell>
        <mxCell id="6lw-6" value="snow" style="whiteSpace=wrap;html=1;fontColor=#1F2D3D;text;fontSize=50;fontStyle=1;fillColor=none" vertex="1" parent="node_root_6lw">
          <mxGeometry x="200" y="275" width="100" height="50" as="geometry"/>
        </mxCell>
        <mxCell id="6lw-7" value="snow" style="whiteSpace=wrap;html=1;fontColor=#1F2D3D;text;fontSize=37;fontStyle=1;fillColor=none" vertex="1" parent="node_root_6lw">
          <mxGeometry x="700" y="275" width="100" height="50" as="geometry"/>
        </mxCell>
        <mxCell id="6lw-8" value="snow" style="whiteSpace=wrap;html=1;fontColor=#1F2D3D;text;fontSize=16;fontStyle=1;fillColor=none" vertex="1" parent="node_root_6lw">
          <mxGeometry x="200" y="395" width="100" height="50" as="geometry"/>
        </mxCell>
        <mxCell id="6lw-9" value="" style="whiteSpace=wrap;html=1;fillColor=#ffffff;strokeColor=#000000;fontColor=#000000" vertex="1" parent="node_root_6lw">
          <mxGeometry x="705" y="375" width="90" height="90" as="geometry"/>
        </mxCell>
        <mxCell id="6lw-11" value="" style="whiteSpace=wrap;html=1;fillColor=#dae8fc;strokeColor=#6c8ebf;fontColor=#333333" vertex="1" parent="node_root_6lw">
          <mxGeometry x="25" y="485" width="90" height="90" as="geometry"/>
        </mxCell>
        <mxCell id="6lw-12" value="" style="whiteSpace=wrap;html=1;fillColor=#dae8fc;strokeColor=#6c8ebf;fontColor=#333333;ellipse" vertex="1" parent="node_root_6lw">
          <mxGeometry x="165" y="485" width="90" height="90" as="geometry"/>
        </mxCell>
        <mxCell id="6lw-13" value="" style="whiteSpace=wrap;html=1;fillColor=#dae8fc;strokeColor=#6c8ebf;fontColor=#333333;shape=actor" vertex="1" parent="node_root_6lw">
          <mxGeometry x="305" y="485" width="90" height="90" as="geometry"/>
        </mxCell>
        <mxCell id="6lw-14" value="" style="whiteSpace=wrap;html=1;fillColor=#dae8fc;strokeColor=#6c8ebf;fontColor=#333333;verticalLabelPosition=bottom;verticalAlign=top;shape=mxgraph.basic.tick" vertex="1" parent="node_root_6lw">
          <mxGeometry x="445" y="485" width="90" height="90" as="geometry"/>
        </mxCell>
        <mxCell id="6lw-15" value="" style="whiteSpace=wrap;html=1;fillColor=#dae8fc;strokeColor=#6c8ebf;fontColor=#333333;verticalLabelPosition=bottom;verticalAlign=top;shape=mxgraph.basic.x" vertex="1" parent="node_root_6lw">
          <mxGeometry x="585" y="485" width="90" height="90" as="geometry"/>
        </mxCell>
        <mxCell id="6lw-16" value="" style="whiteSpace=wrap;html=1;fillColor=#dae8fc;strokeColor=#6c8ebf;fontColor=#333333;shape=cloud" vertex="1" parent="node_root_6lw">
          <mxGeometry x="725" y="485" width="90" height="90" as="geometry"/>
        </mxCell>
      </root>
    </mxGraphModel>
  </diagram>
  <diagram id="4xQ" name="ivory">
    <mxGraphModel dx="0" dy="0" background="#FFFFF0" grid="0" gridSize="10" guides="1" tooltips="1" connect="1" arrows="1" fold="1" page="1" pageScale="1" pageWidth="1169" pageHeight="827" math="0" shadow="0">
      <root>
        <mxCell id="page_root_4xQ" parent="4xQ"/>
        <mxCell id="node_root_4xQ" parent="page_root_4xQ"/>
        <mxCell id="4xQ-2" value="ivory" style="whiteSpace=wrap;html=1;fontColor=#1F2D3D;text;fontSize=89;fontStyle=1;fillColor=none" vertex="1" parent="node_root_4xQ">
          <mxGeometry x="200" y="35" width="100" height="50" as="geometry"/>
        </mxCell>
        <mxCell id="4xQ-3" value="ivory" style="whiteSpace=wrap;html=1;fontColor=#1F2D3D;text;fontSize=21;fontStyle=1;fillColor=none" vertex="1" parent="node_root_4xQ">
          <mxGeometry x="700" y="35" width="100" height="50" as="geometry"/>
        </mxCell>
        <mxCell id="4xQ-4" value="ivory" style="whiteSpace=wrap;html=1;fontColor=#1F2D3D;text;fontSize=67;fontStyle=1;fillColor=none" vertex="1" parent="node_root_4xQ">
          <mxGeometry x="200" y="155" width="100" height="50" as="geometry"/>
        </mxCell>
        <mxCell id="4xQ-5" value="ivory" style="whiteSpace=wrap;html=1;fontColor=#1F2D3D;text;fontSize=28;fontStyle=1;fillColor=none" vertex="1" parent="node_root_4xQ">
          <mxGeometry x="700" y="155" width="100" height="50" as="geometry"/>
        </mxCell>
        <mxCell id="4xQ-6" value="ivory" style="whiteSpace=wrap;html=1;fontColor=#1F2D3D;text;fontSize=50;fontStyle=1;fillColor=none" vertex="1" parent="node_root_4xQ">
          <mxGeometry x="200" y="275" width="100" height="50" as="geometry"/>
        </mxCell>
        <mxCell id="4xQ-7" value="ivory" style="whiteSpace=wrap;html=1;fontColor=#1F2D3D;text;fontSize=37;fontStyle=1;fillColor=none" vertex="1" parent="node_root_4xQ">
          <mxGeometry x="700" y="275" width="100" height="50" as="geometry"/>
        </mxCell>
        <mxCell id="4xQ-8" value="ivory" style="whiteSpace=wrap;html=1;fontColor=#1F2D3D;text;fontSize=16;fontStyle=1;fillColor=none" vertex="1" parent="node_root_4xQ">
          <mxGeometry x="200" y="395" width="100" height="50" as="geometry"/>
        </mxCell>
        <mxCell id="4xQ-9" value="" style="whiteSpace=wrap;html=1;fillColor=#ffffff;strokeColor=#000000;fontColor=#000000" vertex="1" parent="node_root_4xQ">
          <mxGeometry x="705" y="375" width="90" height="90" as="geometry"/>
        </mxCell>
        <mxCell id="4xQ-11" value="" style="whiteSpace=wrap;html=1;fillColor=#dae8fc;strokeColor=#6c8ebf;fontColor=#333333" vertex="1" parent="node_root_4xQ">
          <mxGeometry x="25" y="485" width="90" height="90" as="geometry"/>
        </mxCell>
        <mxCell id="4xQ-12" value="" style="whiteSpace=wrap;html=1;fillColor=#dae8fc;strokeColor=#6c8ebf;fontColor=#333333;ellipse" vertex="1" parent="node_root_4xQ">
          <mxGeometry x="165" y="485" width="90" height="90" as="geometry"/>
        </mxCell>
        <mxCell id="4xQ-13" value="" style="whiteSpace=wrap;html=1;fillColor=#dae8fc;strokeColor=#6c8ebf;fontColor=#333333;shape=actor" vertex="1" parent="node_root_4xQ">
          <mxGeometry x="305" y="485" width="90" height="90" as="geometry"/>
        </mxCell>
        <mxCell id="4xQ-14" value="" style="whiteSpace=wrap;html=1;fillColor=#dae8fc;strokeColor=#6c8ebf;fontColor=#333333;verticalLabelPosition=bottom;verticalAlign=top;shape=mxgraph.basic.tick" vertex="1" parent="node_root_4xQ">
          <mxGeometry x="445" y="485" width="90" height="90" as="geometry"/>
        </mxCell>
        <mxCell id="4xQ-15" value="" style="whiteSpace=wrap;html=1;fillColor=#dae8fc;strokeColor=#6c8ebf;fontColor=#333333;verticalLabelPosition=bottom;verticalAlign=top;shape=mxgraph.basic.x" vertex="1" parent="node_root_4xQ">
          <mxGeometry x="585" y="485" width="90" height="90" as="geometry"/>
        </mxCell>
        <mxCell id="4xQ-16" value="" style="whiteSpace=wrap;html=1;fillColor=#dae8fc;strokeColor=#6c8ebf;fontColor=#333333;shape=cloud" vertex="1" parent="node_root_4xQ">
          <mxGeometry x="725" y="485" width="90" height="90" as="geometry"/>
        </mxCell>
      </root>
    </mxGraphModel>
  </diagram>
</mxfile>